<svg width="256" height="50" viewBox="0 0 256 50" fill="none" xmlns="http://www.w3.org/2000/svg">
<path d="M7.81214 0.298862C8.88439 0.298862 9.88007 0.434365 10.7991 0.705375C11.73 0.976383 12.5371 1.3829 13.2206 1.92492C13.9158 2.45514 14.4578 3.1209 14.8466 3.92213C15.2472 4.72339 15.4475 5.66013 15.4475 6.73239V17.6906C15.4475 18.6097 15.3474 19.4227 15.1471 20.1297C14.9468 20.8249 14.6817 21.4317 14.3517 21.9502C14.0336 22.4568 13.6683 22.8928 13.2559 23.258C12.8435 23.6116 12.4252 23.9002 12.001 24.1242C10.9877 24.666 9.83883 24.9726 8.55445 25.0432H2.68655C2.0149 25.0432 1.49644 24.9312 1.13117 24.7074C0.765897 24.4717 0.500778 24.1654 0.335815 23.7882C0.170854 23.3993 0.0706982 22.9634 0.0353491 22.4804C0.011783 21.9973 0 21.4965 0 20.9781V4.32865C0 3.82198 0.011783 3.32709 0.0353491 2.84399C0.0706982 2.36089 0.170854 1.93081 0.335815 1.55376C0.500778 1.1767 0.765897 0.876227 1.13117 0.65235C1.49644 0.416689 2.0149 0.298862 2.68655 0.298862H7.81214ZM5.37308 4.43469V20.8367H7.67074C8.17741 20.8131 8.63108 20.6953 9.0317 20.4832C9.19664 20.4007 9.36164 20.2888 9.52658 20.1474C9.69153 20.006 9.83883 19.841 9.96844 19.6525C10.0981 19.4522 10.1982 19.2165 10.2689 18.9455C10.3514 18.6745 10.3926 18.3622 10.3926 18.0087V7.58077C10.3926 7.19194 10.3514 6.85021 10.2689 6.55563C10.1982 6.24929 10.0981 5.98417 9.96844 5.76028C9.83883 5.5364 9.69153 5.34788 9.52658 5.1947C9.36164 5.04152 9.19664 4.91781 9.0317 4.82354C8.63108 4.59966 8.17741 4.47005 7.67074 4.43469H5.37308ZM39.386 21.0488C39.386 21.5436 39.3622 22.0326 39.3152 22.5157C39.2681 22.9869 39.1561 23.4111 38.9795 23.7882C38.8025 24.1654 38.5376 24.4717 38.184 24.7074C37.8306 24.9312 37.3474 25.0432 36.7348 25.0432C36.1101 25.0432 35.6212 24.9312 35.2676 24.7074C34.9143 24.4717 34.6432 24.1654 34.4548 23.7882C34.2779 23.4111 34.1661 22.9869 34.1188 22.5157C34.0718 22.0326 34.0482 21.5436 34.0482 21.0488V14.898L28.7813 5.49518C28.4985 5.00027 28.2275 4.51717 27.9682 4.04586C27.7089 3.56276 27.5793 3.07966 27.5793 2.59654C27.5793 2.27841 27.6678 1.96027 27.8444 1.64213C28.0329 1.3122 28.3689 1.00584 28.8519 0.723049C29.3822 0.440256 29.8769 0.298862 30.3366 0.298862C30.69 0.298862 31.0081 0.381342 31.2909 0.546303C31.5854 0.699482 31.8506 0.905685 32.0863 1.16491C32.3221 1.42414 32.534 1.71872 32.7225 2.04864C32.9112 2.36677 33.082 2.69081 33.2351 3.02073L36.452 9.77241H37.0176L40.2344 3.02073C40.3875 2.69081 40.5583 2.36677 40.7468 2.04864C40.9353 1.71872 41.1475 1.42414 41.3832 1.16491C41.6187 0.905685 41.878 0.699482 42.1608 0.546303C42.4553 0.381342 42.7795 0.298862 43.1329 0.298862C43.3804 0.298862 43.6218 0.334211 43.8575 0.404909C44.0933 0.475607 44.3466 0.581652 44.6177 0.723049C45.0771 1.00584 45.4011 1.3122 45.5896 1.64213C45.79 1.96027 45.8902 2.27841 45.8902 2.59654C45.8902 2.80865 45.7959 3.15624 45.6074 3.63934C45.4188 4.11068 45.1124 4.72927 44.6882 5.49518L39.386 14.898V21.0488ZM72.5503 17.7259H72.9745V3.05609C72.9745 2.67902 72.998 2.32553 73.0453 1.99562C73.0924 1.65391 73.1926 1.35933 73.3458 1.11189C73.5107 0.864445 73.7464 0.670024 74.0528 0.528628C74.3708 0.375451 74.8009 0.298862 75.343 0.298862C75.9438 0.298862 76.4153 0.375451 76.7569 0.528628C77.1105 0.670024 77.3755 0.864445 77.5524 1.11189C77.7291 1.35933 77.841 1.65391 77.8881 1.99562C77.9352 2.32553 77.9589 2.67902 77.9589 3.05609V20.9781C77.9589 21.4965 77.941 21.9973 77.9058 22.4804C77.8822 22.9634 77.7879 23.3993 77.623 23.7882C77.4698 24.1654 77.2105 24.4717 76.8454 24.7074C76.4918 24.9312 75.9911 25.0432 75.343 25.0432H73.01C72.4562 25.0432 71.9906 24.9371 71.6137 24.7251C71.2484 24.5011 70.942 24.236 70.6945 23.9296C70.447 23.6116 70.2468 23.2817 70.0937 22.9399C69.9523 22.5982 69.8403 22.3096 69.7579 22.0739L64.4202 7.61613H63.996V22.286C63.996 22.663 63.9724 23.0224 63.9252 23.3641C63.8781 23.6939 63.772 23.9826 63.6071 24.2301C63.4539 24.4776 63.2182 24.6778 62.9001 24.831C62.5938 24.9726 62.1696 25.0432 61.6275 25.0432C61.0149 25.0432 60.5317 24.9726 60.1783 24.831C59.8247 24.6778 59.5595 24.4776 59.3828 24.2301C59.2061 23.9826 59.0942 23.6939 59.0471 23.3641C58.9998 23.0224 58.9763 22.663 58.9763 22.286V4.36401C58.9763 3.85734 58.9881 3.36245 59.0118 2.87933C59.0471 2.38446 59.1471 1.94849 59.3122 1.57143C59.4772 1.18259 59.7364 0.876227 60.0898 0.65235C60.4552 0.416689 60.9676 0.298862 61.6275 0.298862H63.9607C64.5498 0.298862 65.0269 0.416689 65.3923 0.65235C65.7692 0.876227 66.0755 1.12367 66.3112 1.39468C66.5705 1.71282 66.7766 2.0781 66.93 2.4905L72.5503 17.7259ZM98.2209 14.3678H103.841L101.226 4.89424H100.837L98.2209 14.3678ZM109.321 16.0999C109.344 16.9011 109.374 17.7201 109.409 18.5566C109.444 19.3932 109.462 20.2004 109.462 20.9781V21.5083C109.462 21.9561 109.444 22.392 109.409 22.8161C109.385 23.2285 109.297 23.6057 109.144 23.9473C108.991 24.2774 108.749 24.5423 108.419 24.7427C108.089 24.9429 107.624 25.0432 107.023 25.0432C106.41 25.0432 105.939 24.9429 105.609 24.7427C105.279 24.5423 105.031 24.2774 104.867 23.9473C104.713 23.6174 104.619 23.2403 104.584 22.8161C104.56 22.392 104.548 21.9561 104.548 21.5083V19.0339H97.4786V21.5083C97.4786 21.9561 97.461 22.392 97.4255 22.8161C97.4019 23.2403 97.3078 23.6174 97.1427 23.9473C96.9895 24.2774 96.7481 24.5423 96.418 24.7427C96.0882 24.9429 95.6169 25.0432 95.0041 25.0432C94.3914 25.0432 93.9202 24.9429 93.5901 24.7427C93.2603 24.5423 93.0186 24.2774 92.8655 23.9473C92.7123 23.6057 92.6239 23.2285 92.6003 22.8161C92.5768 22.392 92.565 21.9561 92.565 21.5083V20.9781C92.565 20.6128 92.565 20.2239 92.565 19.8115C92.5768 19.3991 92.5886 18.9808 92.6003 18.5566C92.6121 18.1325 92.6239 17.7142 92.6358 17.3018C92.6476 16.8776 92.6594 16.4769 92.6712 16.0999C93.2603 14.0496 93.8788 11.9758 94.5269 9.87847C95.1749 7.76929 95.7936 5.6837 96.3827 3.62167C96.5006 3.18569 96.642 2.76741 96.8069 2.36677C96.9719 1.95438 97.1899 1.60089 97.461 1.30631C97.732 0.999952 98.0795 0.758398 98.5037 0.581652C98.9279 0.393125 99.4699 0.298862 100.13 0.298862H101.897C102.545 0.298862 103.081 0.393125 103.505 0.581652C103.941 0.758398 104.295 0.999952 104.566 1.30631C104.837 1.60089 105.049 1.95438 105.202 2.36677C105.367 2.76741 105.515 3.18569 105.644 3.62167L109.321 16.0999ZM135.486 19.3167C135.144 19.3167 134.85 19.2518 134.602 19.1222C134.367 18.9926 134.16 18.8277 133.984 18.6273C133.807 18.427 133.654 18.2032 133.524 17.9557C133.406 17.7083 133.306 17.4667 133.224 17.2311L129.865 7.54541H129.406V22.286C129.406 22.663 129.382 23.0166 129.335 23.3464C129.288 23.6763 129.182 23.9708 129.017 24.2301C128.864 24.4776 128.628 24.6778 128.31 24.831C128.004 24.9726 127.58 25.0432 127.037 25.0432C126.425 25.0432 125.942 24.9726 125.588 24.831C125.235 24.6778 124.969 24.4776 124.793 24.2301C124.616 23.9708 124.504 23.6763 124.457 23.3464C124.41 23.0166 124.386 22.663 124.386 22.286V4.32865C124.386 3.82198 124.398 3.32709 124.422 2.84399C124.457 2.36089 124.557 1.93081 124.722 1.55376C124.887 1.1767 125.146 0.876227 125.5 0.65235C125.865 0.416689 126.378 0.298862 127.037 0.298862H129.441C129.842 0.298862 130.178 0.316535 130.449 0.351884C130.731 0.375451 130.991 0.475605 131.226 0.65235C131.462 0.817314 131.692 1.08832 131.916 1.46538C132.151 1.84244 132.405 2.37856 132.676 3.07375C132.958 3.75718 133.282 4.63502 133.648 5.70725C134.013 6.76775 134.461 8.07565 134.991 9.63101L135.451 11.045H135.875L136.44 9.27752C136.923 7.79286 137.336 6.53796 137.677 5.51285C138.019 4.48772 138.32 3.64524 138.579 2.98539C138.838 2.31377 139.068 1.8012 139.268 1.44771C139.48 1.08243 139.698 0.817314 139.922 0.65235C140.158 0.475605 140.411 0.375451 140.682 0.351884C140.953 0.316535 141.283 0.298862 141.672 0.298862H144.253C144.912 0.298862 145.419 0.416689 145.773 0.65235C146.138 0.876227 146.403 1.1767 146.568 1.55376C146.733 1.93081 146.827 2.36089 146.851 2.84399C146.886 3.32709 146.904 3.82198 146.904 4.32865V22.286C146.904 22.663 146.88 23.0166 146.833 23.3464C146.786 23.6763 146.674 23.9708 146.497 24.2301C146.32 24.4776 146.055 24.6778 145.702 24.831C145.348 24.9726 144.865 25.0432 144.253 25.0432C143.71 25.0432 143.28 24.9726 142.962 24.831C142.656 24.6778 142.42 24.4776 142.255 24.2301C142.102 23.9708 142.002 23.6763 141.955 23.3464C141.908 23.0166 141.884 22.663 141.884 22.286V7.54541H141.389L138.066 17.2311C137.972 17.4667 137.866 17.7083 137.748 17.9557C137.63 18.2032 137.483 18.427 137.306 18.6273C137.13 18.8277 136.923 18.9926 136.688 19.1222C136.452 19.2518 136.169 19.3167 135.839 19.3167H135.486ZM163.631 4.36401C163.631 3.85734 163.654 3.36245 163.701 2.87933C163.76 2.39623 163.884 1.96616 164.073 1.5891C164.273 1.20026 164.568 0.888012 164.956 0.65235C165.345 0.416689 165.881 0.298862 166.565 0.298862C167.248 0.298862 167.784 0.416689 168.173 0.65235C168.562 0.888012 168.851 1.20026 169.039 1.5891C169.24 1.96616 169.363 2.39623 169.41 2.87933C169.469 3.36245 169.499 3.85734 169.499 4.36401V20.9781C169.499 21.4965 169.475 21.9973 169.428 22.4804C169.381 22.9634 169.257 23.3993 169.057 23.7882C168.868 24.1654 168.574 24.4717 168.173 24.7074C167.784 24.9312 167.248 25.0432 166.565 25.0432C165.881 25.0432 165.345 24.9312 164.956 24.7074C164.568 24.4717 164.273 24.1654 164.073 23.7882C163.884 23.3993 163.76 22.9634 163.701 22.4804C163.654 21.9973 163.631 21.4965 163.631 20.9781V4.36401ZM193.119 0.157465C194.415 0.157465 248.776 -0.17216 249.706 0.122414C250.649 0.416992 251.439 0.799941 252.075 1.27126C252.722 1.74258 253.242 2.27872 253.629 2.87965C254.018 3.4688 254.312 4.06973 254.513 4.68246C254.726 5.29517 254.862 5.88433 254.921 6.44991C254.991 7.0155 255.027 7.50448 255.027 7.91688C255.027 8.09364 255.009 8.31162 254.973 8.57086C254.95 8.81829 254.848 9.05984 254.672 9.29551C254.495 9.53118 254.212 9.73148 253.823 9.89643C253.448 10.0614 252.905 10.1439 252.199 10.1439C251.961 10.1439 251.667 10.1321 251.314 10.1085C250.961 10.0732 250.62 9.99661 250.29 9.87876C249.959 9.74915 249.676 9.57242 249.441 9.34854C249.206 9.11287 249.088 8.78883 249.088 8.37643C249.088 7.74015 249.045 7.16868 248.964 6.66201C248.894 6.15533 248.758 5.72526 248.557 5.37175C248.358 5.01828 248.079 4.74725 247.726 4.55873C247.373 4.37021 193.673 4.75284 193.119 4.75284C192.542 4.75284 192.094 4.87657 191.776 5.124C191.469 5.35967 191.246 5.61889 191.104 5.90168C190.939 6.24338 190.845 6.62635 190.821 7.05054V18.2562C190.845 18.7746 190.939 19.2283 191.104 19.6171C191.246 19.9588 191.469 20.2711 191.776 20.5539C192.094 20.8367 192.542 20.9781 193.119 20.9781C193.673 20.9781 247.373 20.3892 247.726 20.1654C248.079 19.9297 248.358 19.6174 248.557 19.2286C248.758 18.8398 248.894 18.392 248.964 17.8853C249.045 17.3787 249.088 16.8484 249.088 16.2946C249.088 16.1179 249.118 15.9353 249.176 15.7467C249.235 15.5582 249.371 15.3873 249.581 15.2342C249.794 15.0692 250.106 14.9337 250.518 14.8276C250.932 14.7216 251.491 14.6686 252.199 14.6686C252.905 14.6686 253.448 14.7511 253.823 14.916C254.212 15.0692 254.495 15.2518 254.672 15.4639C254.848 15.6642 254.95 15.8646 254.973 16.0649C255.009 16.2534 255.027 16.3771 255.027 16.436C255.027 17.7322 254.807 18.8928 254.373 19.9179C253.936 20.9312 253.317 21.7914 252.516 22.4983C251.726 23.2052 250.778 23.7473 249.67 24.1244C248.575 24.4896 194.121 25.1493 192.801 25.1493C192.589 25.1493 192.241 25.1316 191.758 25.0961C191.287 25.0608 190.757 24.9665 190.167 24.8133C189.578 24.6602 188.971 24.4305 188.347 24.1242C187.722 23.8177 187.151 23.3935 186.633 22.8514C186.126 22.2978 185.707 21.6144 185.378 20.8013C185.048 19.9765 184.883 18.975 184.883 17.7967V7.93426C184.883 6.96806 185 6.11377 185.236 5.37146C185.472 4.62911 185.778 3.98695 186.155 3.44491C186.544 2.89112 186.986 2.43159 187.481 2.06632C187.976 1.68926 188.482 1.37701 189.001 1.12956C190.203 0.563979 191.576 0.239946 193.119 0.157465Z" fill="white"/>
<path d="M1.57324 39.5896C1.57324 39.3362 1.58503 39.0887 1.60859 38.8474C1.63216 38.6057 1.68813 38.3906 1.7765 38.2021C1.87076 38.0078 2.00627 37.8517 2.18302 37.7338C2.35976 37.616 2.60425 37.5571 2.9165 37.5571C3.25232 37.5571 3.51451 37.616 3.70303 37.7338C3.89155 37.8517 4.03 38.0078 4.11837 38.2021C4.20676 38.3906 4.25977 38.6057 4.27744 38.8474C4.30101 39.0887 4.3128 39.3362 4.3128 39.5896V47.3311H6.04491C6.28646 47.3311 6.52505 47.3429 6.76072 47.3664C6.99639 47.3899 7.20554 47.4458 7.38816 47.5343C7.5767 47.6227 7.72692 47.7524 7.83886 47.9232C7.9508 48.094 8.00677 48.3268 8.00677 48.6213C8.00677 48.9218 7.9508 49.1605 7.83886 49.3371C7.72692 49.508 7.5767 49.6376 7.38816 49.726C7.20554 49.8143 6.99639 49.8704 6.76072 49.8939C6.52505 49.9174 6.28646 49.9292 6.04491 49.9292H3.53512C3.22287 49.9292 2.94596 49.9174 2.70441 49.8939C2.46286 49.8704 2.25666 49.8143 2.0858 49.726C1.92084 49.6376 1.79418 49.508 1.7058 49.3371C1.61743 49.1605 1.57324 48.9218 1.57324 48.6213V39.5896ZM25.6219 37.5571C25.8576 37.5571 26.0961 37.566 26.3377 37.5836C26.5793 37.6013 26.7972 37.6513 26.9917 37.7338C27.1861 37.8162 27.3451 37.9429 27.4689 38.1137C27.5926 38.2788 27.6546 38.5114 27.6546 38.8118C27.6546 39.1125 27.5926 39.348 27.4689 39.5188C27.3451 39.684 27.1861 39.8075 26.9917 39.8901C26.7972 39.9726 26.5793 40.0226 26.3377 40.0403C26.0961 40.0579 25.8576 40.0668 25.6219 40.0668H23.5186V42.4705H24.6321C24.8679 42.4705 25.1034 42.4793 25.3391 42.497C25.5807 42.509 25.7927 42.556 25.9755 42.6384C26.164 42.715 26.3171 42.8359 26.435 43.0008C26.5529 43.1598 26.6117 43.3838 26.6117 43.6725C26.6117 43.967 26.5529 44.1937 26.435 44.353C26.3171 44.512 26.164 44.6328 25.9755 44.7152C25.7927 44.7919 25.5807 44.8389 25.3391 44.8566C25.1034 44.8683 24.8679 44.8742 24.6321 44.8742H23.5186V47.4194H25.6219C25.8576 47.4194 26.0961 47.4282 26.3377 47.4458C26.5793 47.4637 26.7972 47.5137 26.9917 47.5963C27.1861 47.6727 27.3451 47.7965 27.4689 47.9673C27.5926 48.1322 27.6546 48.3621 27.6546 48.6566C27.6546 48.963 27.5897 49.2016 27.4601 49.3724C27.3363 49.5432 27.1773 49.6699 26.9829 49.7525C26.7884 49.8349 26.5705 49.8851 26.3289 49.9027C26.0873 49.9204 25.8518 49.9292 25.6219 49.9292H22.1577C21.8278 49.9292 21.5715 49.8704 21.3889 49.7525C21.2121 49.6346 21.0825 49.4815 21 49.293C20.9176 49.0985 20.8675 48.8806 20.8498 48.639C20.838 48.3974 20.8321 48.1499 20.8321 47.8967V39.5896C20.8321 39.3362 20.838 39.0887 20.8498 38.8474C20.8675 38.6057 20.9176 38.3906 21 38.2021C21.0825 38.0078 21.2121 37.8517 21.3889 37.7338C21.5715 37.616 21.8278 37.5571 22.1577 37.5571H25.6219ZM42.8306 44.5914H45.6409L44.3328 39.8548H44.1385L42.8306 44.5914ZM48.3804 45.4575C48.3921 45.8581 48.4068 46.2676 48.4245 46.6859C48.4421 47.1042 48.4512 47.5078 48.4512 47.8967V48.1619C48.4512 48.3856 48.4421 48.6037 48.4245 48.8157C48.4127 49.022 48.3686 49.2105 48.2919 49.3813C48.2154 49.5462 48.0946 49.6788 47.9297 49.779C47.7648 49.8792 47.532 49.9292 47.2316 49.9292C46.9252 49.9292 46.6895 49.8792 46.5246 49.779C46.3596 49.6788 46.2359 49.5462 46.1533 49.3813C46.0769 49.2163 46.0296 49.0279 46.0119 48.8157C46.0002 48.6037 45.9943 48.3856 45.9943 48.1619V46.9246H42.4594V48.1619C42.4594 48.3856 42.4506 48.6037 42.4329 48.8157C42.4211 49.0279 42.3741 49.2163 42.2915 49.3813C42.2148 49.5462 42.0942 49.6788 41.9291 49.779C41.7642 49.8792 41.5286 49.9292 41.2221 49.9292C40.9158 49.9292 40.6803 49.8792 40.5151 49.779C40.3502 49.6788 40.2294 49.5462 40.1529 49.3813C40.0762 49.2105 40.0321 49.022 40.0203 48.8157C40.0086 48.6037 40.0027 48.3856 40.0027 48.1619V47.8967C40.0027 47.7139 40.0027 47.5196 40.0027 47.3135C40.0086 47.1072 40.0145 46.8981 40.0203 46.6859C40.0262 46.4739 40.0321 46.2647 40.038 46.0586C40.0439 45.8464 40.0498 45.6461 40.0556 45.4575C40.3502 44.4324 40.6595 43.3956 40.9836 42.3467C41.3076 41.2923 41.6169 40.2496 41.9114 39.2184C41.9705 39.0005 42.0411 38.7912 42.1236 38.591C42.206 38.3847 42.315 38.208 42.4506 38.0607C42.5861 37.9076 42.7598 37.7868 42.972 37.6985C43.184 37.6042 43.455 37.5571 43.7851 37.5571H44.6688C44.9927 37.5571 45.2608 37.6042 45.4728 37.6985C45.6909 37.7868 45.8676 37.9076 46.0031 38.0607C46.1386 38.208 46.2447 38.3847 46.3212 38.591C46.4038 38.7912 46.4775 39.0005 46.5422 39.2184L48.3804 45.4575ZM61.4001 39.572C61.4001 39.3186 61.406 39.0711 61.4178 38.8297C61.4354 38.5881 61.4857 38.3729 61.568 38.1845C61.6506 37.996 61.7802 37.8458 61.9569 37.7338C62.1395 37.616 62.3958 37.5571 62.7257 37.5571H65.642C66.3667 37.5924 67.0148 37.7456 67.5863 38.0166C67.8277 38.1345 68.0634 38.2818 68.2933 38.4585C68.5288 38.6293 68.738 38.8444 68.9206 39.1034C69.1032 39.3568 69.2507 39.6573 69.3624 40.005C69.4744 40.3525 69.5303 40.7561 69.5303 41.2156C69.5303 41.3099 69.5215 41.4366 69.5039 41.5956C69.4862 41.7488 69.448 41.9196 69.3889 42.1083C69.3301 42.2909 69.2507 42.4823 69.1505 42.6827C69.0502 42.8829 68.9177 43.0745 68.7528 43.2571C68.5878 43.4397 68.3844 43.6075 68.1431 43.7607C67.9073 43.9139 67.6275 44.0376 67.3035 44.132C67.5096 44.2145 67.7189 44.3233 67.9308 44.4589C68.1431 44.5885 68.3344 44.7564 68.5052 44.9627C68.6761 45.1688 68.8145 45.4163 68.9206 45.705C69.0326 45.9936 69.0885 46.3296 69.0885 46.7124V47.9673C69.0885 48.0381 69.1061 48.0969 69.1416 48.144C69.1769 48.1913 69.2122 48.2324 69.2475 48.2677C69.3889 48.4091 69.4715 48.5329 69.495 48.639C69.5186 48.7392 69.5303 48.8216 69.5303 48.8865C69.5303 49.0926 69.4891 49.2663 69.4068 49.4077C69.3242 49.5491 69.2152 49.6641 69.0797 49.7525C68.95 49.8407 68.7998 49.9027 68.629 49.938C68.4641 49.9792 68.2933 50 68.1164 50C67.922 50 67.7247 49.9704 67.5243 49.9116C67.3241 49.8466 67.1415 49.7555 66.9764 49.6376C66.8114 49.5197 66.6759 49.3724 66.57 49.1958C66.4698 49.0191 66.4196 48.8157 66.4196 48.5861V46.7124C66.4196 46.4531 66.402 46.2147 66.3667 45.9966C66.3314 45.7787 66.2635 45.59 66.1635 45.431C66.0633 45.2719 65.9248 45.1482 65.7481 45.06C65.5712 44.9715 65.3416 44.9274 65.0588 44.9274H64.069V47.8791C64.069 48.1381 64.0602 48.3915 64.0426 48.639C64.0308 48.8865 63.9835 49.1073 63.9012 49.3019C63.8186 49.4903 63.686 49.6435 63.5034 49.7613C63.3209 49.8733 63.0616 49.9292 62.7257 49.9292C62.3958 49.9292 62.1395 49.8733 61.9569 49.7613C61.7802 49.6435 61.6506 49.4903 61.568 49.3019C61.4857 49.1073 61.4354 48.8865 61.4178 48.639C61.406 48.3915 61.4001 48.1381 61.4001 47.8791V39.572ZM65.2708 42.9478C65.5653 42.9361 65.8305 42.8653 66.0662 42.7356C66.1664 42.6827 66.2635 42.6148 66.3578 42.5325C66.4522 42.4499 66.5375 42.3467 66.6142 42.2232C66.6906 42.0995 66.7497 41.9551 66.7908 41.79C66.8379 41.6251 66.8617 41.4337 66.8617 41.2156C66.8617 41.0212 66.8379 40.8504 66.7908 40.7032C66.7497 40.55 66.6936 40.4174 66.623 40.3054C66.5522 40.1934 66.4698 40.0993 66.3755 40.0226C66.2872 39.9459 66.1959 39.8842 66.1015 39.8371C65.8778 39.7251 65.6244 39.6602 65.3416 39.6426H64.069V42.9478H65.2708ZM89.3726 46.2705H89.5846V38.9356C89.5846 38.7471 89.5964 38.5704 89.6201 38.4055C89.6437 38.2345 89.6937 38.0872 89.7703 37.9635C89.8527 37.8399 89.9706 37.7426 90.1237 37.6718C90.2828 37.5954 90.4979 37.5571 90.769 37.5571C91.0694 37.5571 91.3049 37.5954 91.4759 37.6718C91.6526 37.7426 91.7852 37.8399 91.8734 37.9635C91.9619 38.0872 92.0178 38.2345 92.0415 38.4055C92.065 38.5704 92.0768 38.7471 92.0768 38.9356V47.8967C92.0768 48.1558 92.068 48.4062 92.0503 48.6478C92.0386 48.8894 91.9913 49.1073 91.9089 49.3019C91.8323 49.4903 91.7026 49.6435 91.5201 49.7613C91.3434 49.8733 91.0929 49.9292 90.769 49.9292H89.6023C89.3253 49.9292 89.0928 49.8763 88.9041 49.7702C88.7215 49.6582 88.5684 49.5256 88.4446 49.3724C88.3209 49.2134 88.2209 49.0485 88.1442 48.8777C88.0736 48.7066 88.0175 48.5623 87.9763 48.4447L85.3074 41.2156H85.0955V48.5505C85.0955 48.7392 85.0835 48.9188 85.0599 49.0896C85.0364 49.2546 84.9835 49.3989 84.9009 49.5227C84.8244 49.6464 84.7066 49.7466 84.5475 49.8231C84.3944 49.8939 84.1821 49.9292 83.9111 49.9292C83.6048 49.9292 83.3632 49.8939 83.1865 49.8231C83.0098 49.7466 82.8772 49.6464 82.7888 49.5227C82.7005 49.3989 82.6444 49.2546 82.6209 49.0896C82.5974 48.9188 82.5856 48.7392 82.5856 48.5505V39.5896C82.5856 39.3362 82.5915 39.0887 82.6033 38.8474C82.6209 38.5999 82.6709 38.3818 82.7535 38.1933C82.8361 37.999 82.9655 37.8458 83.1424 37.7338C83.3249 37.616 83.5813 37.5571 83.9111 37.5571H85.0776C85.3721 37.5571 85.6108 37.616 85.7934 37.7338C85.9821 37.8458 86.1352 37.9693 86.2531 38.1049C86.3827 38.2641 86.4857 38.4467 86.5624 38.6528L89.3726 46.2705ZM105.821 39.5896C105.821 39.3362 105.833 39.0887 105.856 38.8474C105.886 38.6057 105.948 38.3906 106.042 38.2021C106.142 38.0078 106.29 37.8517 106.484 37.7338C106.678 37.616 106.947 37.5571 107.288 37.5571C107.63 37.5571 107.898 37.616 108.092 37.7338C108.287 37.8517 108.431 38.0078 108.525 38.2021C108.626 38.3906 108.687 38.6057 108.711 38.8474C108.741 39.0887 108.755 39.3362 108.755 39.5896V47.8967C108.755 48.1558 108.743 48.4062 108.72 48.6478C108.696 48.8894 108.634 49.1073 108.534 49.3019C108.44 49.4903 108.293 49.6435 108.092 49.7613C107.898 49.8733 107.63 49.9292 107.288 49.9292C106.947 49.9292 106.678 49.8733 106.484 49.7613C106.29 49.6435 106.142 49.4903 106.042 49.3019C105.948 49.1073 105.886 48.8894 105.856 48.6478C105.833 48.4062 105.821 48.1558 105.821 47.8967V39.5896ZM129.357 46.2705H129.569V38.9356C129.569 38.7471 129.581 38.5704 129.605 38.4055C129.628 38.2345 129.678 38.0872 129.755 37.9635C129.838 37.8399 129.955 37.7426 130.109 37.6718C130.268 37.5954 130.483 37.5571 130.754 37.5571C131.054 37.5571 131.29 37.5954 131.461 37.6718C131.637 37.7426 131.77 37.8399 131.858 37.9635C131.947 38.0872 132.003 38.2345 132.026 38.4055C132.05 38.5704 132.061 38.7471 132.061 38.9356V47.8967C132.061 48.1558 132.053 48.4062 132.035 48.6478C132.023 48.8894 131.976 49.1073 131.894 49.3019C131.817 49.4903 131.687 49.6435 131.505 49.7613C131.328 49.8733 131.078 49.9292 130.754 49.9292H129.587C129.31 49.9292 129.077 49.8763 128.889 49.7702C128.706 49.6582 128.553 49.5256 128.429 49.3724C128.306 49.2134 128.205 49.0485 128.129 48.8777C128.058 48.7066 128.002 48.5623 127.961 48.4447L125.292 41.2156H125.08V48.5505C125.08 48.7392 125.068 48.9188 125.045 49.0896C125.021 49.2546 124.968 49.3989 124.886 49.5227C124.809 49.6464 124.691 49.7466 124.532 49.8231C124.379 49.8939 124.167 49.9292 123.896 49.9292C123.59 49.9292 123.348 49.8939 123.171 49.8231C122.994 49.7466 122.862 49.6464 122.774 49.5227C122.685 49.3989 122.629 49.2546 122.606 49.0896C122.582 48.9188 122.57 48.7392 122.57 48.5505V39.5896C122.57 39.3362 122.576 39.0887 122.588 38.8474C122.606 38.5999 122.656 38.3818 122.738 38.1933C122.821 37.999 122.95 37.8458 123.127 37.7338C123.31 37.616 123.566 37.5571 123.896 37.5571H125.062C125.357 37.5571 125.596 37.616 125.778 37.7338C125.967 37.8458 126.12 37.9693 126.238 38.1049C126.367 38.2641 126.47 38.4467 126.547 38.6528L129.357 46.2705ZM153.795 49.1161C153.795 49.1928 153.786 49.281 153.768 49.3813C153.757 49.4815 153.718 49.5788 153.653 49.6729C153.595 49.7613 153.506 49.8378 153.388 49.9027C153.27 49.9674 153.111 50 152.911 50C152.687 50 152.51 49.9704 152.381 49.9116C152.251 49.8466 152.151 49.7702 152.08 49.6817C152.016 49.5876 151.971 49.4903 151.948 49.3901C151.93 49.2901 151.921 49.1987 151.921 49.1161V48.5861C151.639 49.0041 151.276 49.346 150.834 49.6111C150.398 49.8704 149.859 50 149.217 50C149.105 50 148.931 49.991 148.696 49.9733C148.46 49.9557 148.195 49.9086 147.9 49.8319C147.606 49.7555 147.302 49.6405 146.99 49.4874C146.678 49.3342 146.392 49.122 146.133 48.851C145.88 48.5741 145.671 48.2324 145.505 47.8259C145.34 47.4135 145.258 46.9128 145.258 46.3237V41.3748C145.258 40.8916 145.317 40.4645 145.435 40.0932C145.553 39.7222 145.706 39.4012 145.894 39.1301C146.089 38.8532 146.31 38.6234 146.557 38.4408C146.805 38.2521 147.058 38.096 147.317 37.9723C147.918 37.6895 148.604 37.5275 149.376 37.4863C150.03 37.4863 150.59 37.5601 151.055 37.7074C151.521 37.8546 151.916 38.046 152.239 38.2818C152.563 38.5173 152.823 38.7854 153.017 39.0858C153.212 39.3804 153.362 39.681 153.468 39.9873C153.574 40.2937 153.642 40.5882 153.671 40.871C153.706 41.1538 153.724 41.3984 153.724 41.6045C153.724 41.6929 153.715 41.802 153.698 41.9314C153.686 42.0551 153.636 42.1759 153.547 42.2938C153.459 42.4058 153.318 42.5031 153.123 42.5854C152.935 42.6621 152.664 42.7003 152.31 42.7003C152.187 42.7003 152.033 42.6945 151.851 42.6827C151.674 42.6651 151.503 42.6266 151.338 42.5678C151.173 42.5089 151.032 42.4234 150.914 42.3114C150.796 42.1936 150.737 42.0345 150.737 41.8343C150.737 41.5162 150.716 41.2334 150.675 40.9859C150.64 40.7326 150.572 40.5174 150.472 40.3407C150.372 40.164 150.233 40.0315 150.057 39.943C149.88 39.8489 149.653 39.8016 149.376 39.8016C149.088 39.8016 148.864 39.8607 148.705 39.9785C148.551 40.0962 148.439 40.2258 148.369 40.3672C148.286 40.5323 148.239 40.7208 148.227 40.9328V46.5886C148.227 46.7773 148.26 46.954 148.324 47.1189C148.395 47.2838 148.493 47.4282 148.616 47.5519C148.74 47.6757 148.884 47.773 149.049 47.8436C149.22 47.9144 149.406 47.9497 149.606 47.9497C149.842 47.9497 150.054 47.8997 150.242 47.7994C150.437 47.6933 150.611 47.5549 150.764 47.3841C150.917 47.2074 151.052 47.0099 151.17 46.792C151.294 46.568 151.403 46.3355 151.497 46.0939H150.649C150.478 46.0762 150.328 46.0319 150.198 45.9613C150.08 45.9025 149.974 45.814 149.88 45.6961C149.792 45.5783 149.747 45.4163 149.747 45.2102C149.747 44.9862 149.792 44.8154 149.88 44.6975C149.974 44.5738 150.08 44.4826 150.198 44.4236C150.328 44.3589 150.478 44.3204 150.649 44.3086H152.946C152.988 44.3086 153.053 44.3175 153.141 44.3351C153.235 44.3471 153.329 44.3883 153.424 44.4589C153.524 44.5297 153.609 44.6358 153.68 44.7772C153.757 44.9127 153.795 45.1041 153.795 45.3516V49.1161ZM187.611 45.0511V47.9144C187.611 48.1677 187.602 48.415 187.585 48.6566C187.573 48.8983 187.523 49.1132 187.434 49.3019C187.352 49.4903 187.219 49.6435 187.037 49.7613C186.854 49.8733 186.592 49.9292 186.25 49.9292C185.92 49.9292 185.664 49.8733 185.481 49.7613C185.305 49.6435 185.175 49.4903 185.092 49.3019C185.01 49.1132 184.96 48.8983 184.942 48.6566C184.931 48.415 184.925 48.1677 184.925 47.9144V39.572C184.925 39.3186 184.931 39.0711 184.942 38.8297C184.96 38.5881 185.01 38.3729 185.092 38.1845C185.175 37.996 185.305 37.8458 185.481 37.7338C185.664 37.616 185.92 37.5571 186.25 37.5571H189.167C189.897 37.5924 190.551 37.7456 191.128 38.0166C191.376 38.1345 191.614 38.2818 191.844 38.4585C192.08 38.6351 192.289 38.8532 192.472 39.1125C192.66 39.3657 192.81 39.669 192.922 40.0226C193.034 40.3701 193.09 40.7737 193.09 41.2334C193.09 41.8637 192.99 42.4176 192.79 42.8947C192.595 43.3662 192.31 43.7636 191.933 44.0878C191.561 44.4059 191.105 44.6475 190.563 44.8125C190.027 44.9715 189.42 45.0511 188.742 45.0511H187.611ZM188.813 42.9478C189.108 42.9302 189.373 42.8594 189.608 42.7356C189.709 42.6827 189.806 42.6148 189.9 42.5325C189.994 42.4499 190.08 42.3497 190.156 42.232C190.233 42.1083 190.292 41.964 190.333 41.799C190.38 41.6339 190.404 41.4454 190.404 41.2334C190.404 41.033 190.38 40.8593 190.333 40.712C190.292 40.5588 190.236 40.4292 190.165 40.3231C190.095 40.2111 190.015 40.117 189.926 40.0403C189.838 39.9638 189.747 39.8989 189.653 39.8459C189.429 39.734 189.178 39.6661 188.901 39.6426H187.611V42.9478H188.813ZM207.754 44.5914H210.564L209.256 39.8548H209.062L207.754 44.5914ZM213.304 45.4575C213.315 45.8581 213.33 46.2676 213.348 46.6859C213.365 47.1042 213.374 47.5078 213.374 47.8967V48.1619C213.374 48.3856 213.365 48.6037 213.348 48.8157C213.336 49.022 213.292 49.2105 213.215 49.3813C213.139 49.5462 213.018 49.6788 212.853 49.779C212.688 49.8792 212.455 49.9292 212.155 49.9292C211.848 49.9292 211.613 49.8792 211.448 49.779C211.283 49.6788 211.159 49.5462 211.077 49.3813C211 49.2163 210.953 49.0279 210.935 48.8157C210.923 48.6037 210.918 48.3856 210.918 48.1619V46.9246H207.383V48.1619C207.383 48.3856 207.374 48.6037 207.356 48.8157C207.344 49.0279 207.297 49.2163 207.215 49.3813C207.138 49.5462 207.017 49.6788 206.852 49.779C206.687 49.8792 206.452 49.9292 206.145 49.9292C205.839 49.9292 205.603 49.8792 205.438 49.779C205.273 49.6788 205.153 49.5462 205.076 49.3813C205 49.2105 204.955 49.022 204.944 48.8157C204.932 48.6037 204.926 48.3856 204.926 48.1619V47.8967C204.926 47.7139 204.926 47.5196 204.926 47.3135C204.932 47.1072 204.938 46.8981 204.944 46.6859C204.95 46.4739 204.955 46.2647 204.961 46.0586C204.967 45.8464 204.973 45.6461 204.979 45.4575C205.273 44.4324 205.583 43.3956 205.907 42.3467C206.231 41.2923 206.54 40.2496 206.835 39.2184C206.894 39.0005 206.964 38.7912 207.047 38.591C207.129 38.3847 207.238 38.208 207.374 38.0607C207.509 37.9076 207.683 37.7868 207.895 37.6985C208.107 37.6042 208.378 37.5571 208.708 37.5571H209.592C209.916 37.5571 210.184 37.6042 210.396 37.6985C210.614 37.7868 210.791 37.9076 210.926 38.0607C211.062 38.208 211.168 38.3847 211.244 38.591C211.327 38.7912 211.401 39.0005 211.466 39.2184L213.304 45.4575ZM231.662 37.5571C231.897 37.5571 232.132 37.566 232.368 37.5836C232.61 37.6013 232.827 37.6513 233.021 37.7338C233.216 37.8162 233.372 37.9429 233.49 38.1137C233.614 38.2788 233.675 38.5114 233.675 38.8118C233.675 39.1064 233.614 39.3392 233.49 39.51C233.372 39.6751 233.216 39.7987 233.021 39.8812C232.827 39.9638 232.61 40.0168 232.368 40.0403C232.132 40.0579 231.897 40.0668 231.662 40.0668H230.759V47.9144C230.759 48.1677 230.75 48.415 230.734 48.6566C230.721 48.8983 230.675 49.1132 230.592 49.3019C230.51 49.4903 230.377 49.6435 230.193 49.7613C230.012 49.8733 229.752 49.9292 229.417 49.9292C229.08 49.9292 228.822 49.8733 228.639 49.7613C228.456 49.6435 228.322 49.4903 228.241 49.3019C228.16 49.1132 228.108 48.8983 228.092 48.6566C228.078 48.415 228.074 48.1677 228.074 47.9144V40.0668H227.171C226.936 40.0668 226.698 40.0579 226.456 40.0403C226.22 40.0168 226.005 39.9638 225.811 39.8812C225.616 39.7987 225.457 39.6751 225.334 39.51C225.216 39.3392 225.157 39.1064 225.157 38.8118C225.157 38.5114 225.216 38.2788 225.334 38.1137C225.457 37.9429 225.616 37.8162 225.811 37.7338C226.005 37.6513 226.22 37.6013 226.456 37.5836C226.698 37.566 226.936 37.5571 227.171 37.5571H231.662ZM246.077 39.5896C246.077 39.3362 246.089 39.0887 246.114 38.8474C246.136 38.6057 246.193 38.3906 246.281 38.2021C246.374 38.0078 246.509 37.8517 246.686 37.7338C246.865 37.616 247.109 37.5571 247.421 37.5571C247.727 37.5571 247.969 37.616 248.145 37.7338C248.328 37.8517 248.464 38.0078 248.552 38.2021C248.645 38.3906 248.704 38.6057 248.729 38.8474C248.751 39.0887 248.763 39.3362 248.763 39.5896V42.3646H251.186V39.5896C251.186 39.3362 251.197 39.0887 251.22 38.8474C251.244 38.6057 251.301 38.3906 251.389 38.2021C251.482 38.0078 251.618 37.8517 251.794 37.7338C251.971 37.616 252.215 37.5571 252.527 37.5571C252.835 37.5571 253.077 37.616 253.253 37.7338C253.437 37.8517 253.57 38.0078 253.658 38.2021C253.753 38.3906 253.812 38.6057 253.837 38.8474C253.86 39.0887 253.871 39.3362 253.871 39.5896V47.8967C253.871 48.1558 253.86 48.4062 253.837 48.6478C253.812 48.8894 253.753 49.1073 253.658 49.3019C253.57 49.4903 253.437 49.6435 253.253 49.7613C253.077 49.8733 252.835 49.9292 252.527 49.9292C252.215 49.9292 251.971 49.8733 251.794 49.7613C251.618 49.6435 251.482 49.4903 251.389 49.3019C251.301 49.1073 251.244 48.8894 251.22 48.6478C251.197 48.4062 251.186 48.1558 251.186 47.8967V44.9627H248.763V47.8967C248.763 48.1558 248.751 48.4062 248.729 48.6478C248.704 48.8894 248.645 49.1073 248.552 49.3019C248.464 49.4903 248.328 49.6435 248.145 49.7613C247.969 49.8733 247.727 49.9292 247.421 49.9292C247.109 49.9292 246.865 49.8733 246.686 49.7613C246.509 49.6435 246.374 49.4903 246.281 49.3019C246.193 49.1073 246.136 48.8894 246.114 48.6478C246.089 48.4062 246.077 48.1558 246.077 47.8967V39.5896Z" fill="white"/>
</svg>
