<svg xmlns="http://www.w3.org/2000/svg" width="24" height="22" viewBox="0 0 24 22" fill="none">
                        <path
                            d="M23.924 8.617C23.769 8.244 23.404 8 23 8H21.58C20.25 3.319 15.929 0 11 0C4.935 0 0 4.935 0 11C0 17.065 4.935 22 11 22C13.41 22 15.693 21.239 17.602 19.798C18.043 19.465 18.131 18.839 17.798 18.398C17.465 17.957 16.838 17.869 16.398 18.202C14.838 19.378 12.972 20 11 20C6.038 20 2 15.962 2 11C2 6.038 6.038 2 11 2C14.838 2 18.222 4.462 19.478 8H19C18.596 8 18.231 8.244 18.076 8.617C17.921 8.991 18.007 9.421 18.293 9.707L20.293 11.707C20.488 11.902 20.744 12 21 12C21.256 12 21.512 11.902 21.707 11.707L23.707 9.707C23.993 9.421 24.079 8.991 23.924 8.617Z"
                            fill="#7C57FD" />
                    </svg>