<svg xmlns="http://www.w3.org/2000/svg" width="30" height="30" viewBox="0 0 30 30" fill="none">
  <path d="M29.7244 11.2191C29.4619 10.438 28.8062 9.87767 28.0101 9.75553L20.3096 8.57372L16.8585 1.25145C16.4985 0.478937 15.756 0 14.9224 0C14.0888 0 13.3463 0.480009 12.9863 1.24931L9.53407 8.57479L1.83357 9.7566C1.03856 9.87875 0.381763 10.4402 0.119258 11.2202C-0.150747 12.0249 0.0453282 12.9002 0.630338 13.5024L6.23401 19.2689L4.9097 27.4248C4.77041 28.2841 5.11756 29.1219 5.81722 29.6137C6.18151 29.8698 6.60366 29.9995 7.02795 29.9995C7.37832 29.9995 7.72868 29.9105 8.05118 29.7327L14.9042 25.9097L21.7946 29.7327C22.5061 30.128 23.3622 30.082 24.0275 29.6137C24.7272 29.123 25.0743 28.2841 24.9351 27.4258L23.6107 19.27L29.2144 13.5035C29.7994 12.9013 29.9955 12.027 29.7255 11.2213L29.7244 11.2191Z" fill="#FFCB2B"/>
</svg>