<svg xmlns="http://www.w3.org/2000/svg" width="237" height="30" viewBox="0 0 237 30" fill="none">
  <path d="M224.787 0.0963589H229.072V0.800984H227.332V5.68518H226.53V0.800984H224.787V0.0963589ZM232.969 4.73213L234.695 0.0963589H236.017V5.68518H235.215V0.850669H235.201L233.349 5.68518H232.554L230.704 0.850669H230.687V5.68518H229.88V0.0963589H231.207L232.969 4.73213ZM35.3723 0H43.3543V29.8299H35.3723V0ZM90.522 0.0248425H100.313L111.864 30H103.105L100.87 23.6049H89.6194L87.2541 30H79.1381L90.522 0.0248425ZM95.416 6.20838H95.3324L91.4645 17.9341H98.9798L95.416 6.20838ZM115.751 0.0210785H129.54C135.12 0.0210785 139.288 2.46694 139.288 7.61988C139.288 11.405 137.356 13.5113 134.007 14.624V14.7075C137.995 15.5288 140.061 17.6736 140.061 21.3284C140.061 28.4997 133.747 29.9992 128.381 29.9992H115.751V0.0210785ZM123.736 24.3382H126.105C129.023 24.3382 132.072 23.9038 132.072 20.8572C132.072 17.5885 128.937 17.2927 126.191 17.2927H123.736L123.736 24.3382ZM123.736 11.8785H125.972C128.594 11.8785 131.296 11.2341 131.296 8.6979C131.296 5.94791 128.724 5.69647 126.062 5.69647H123.736V11.8785ZM150.875 18.7087L139.798 0.0210785H148.986L154.872 12.0479L160.67 0.0210785H169.865L158.864 18.7087V30H150.875V18.7087ZM180.535 5.94791H173.152V0.0210785H195.913V5.94791H188.53V30H180.535V5.94791ZM199.715 0.0210785H220.847V5.69647H207.701V11.8785H220.113V17.5464H207.701V24.3382H221.316V30H199.715V0.0210785ZM17.2328 6.58478C11.9187 7.02667 9.01741 10.5152 9.01741 15.0297C9.01741 19.4193 13.0848 23.1088 17.0129 23.1088L17.8757 23.0998H19.3278C19.3278 23.0998 20.2906 23.0998 20.2974 22.161V12.7397H28.5C28.5 18.0575 28.4804 30 28.4804 30C28.4804 30 20.3848 29.9932 15.6842 29.9932C6.84481 29.9932 0.538574 22.691 0.538574 15.0297C0.538574 6.74287 7.39813 -0.178415 15.9394 0.127977L28.2094 0.16637L28.2034 6.58403L17.2328 6.58478ZM64.6993 6.58478C59.383 7.02592 56.487 10.5144 56.487 15.0297C56.487 19.4193 60.5484 23.1088 64.4795 23.1088L65.3392 23.0998H66.7951C66.7951 23.0998 67.7512 23.0998 67.758 22.161V12.7397H75.947C75.947 18.0575 75.9334 30 75.9334 30C75.9334 30 67.8445 29.9932 63.147 29.9932C54.3121 29.9932 48.0127 22.691 48.0127 15.0297C48.0127 6.74287 54.8654 -0.178415 63.4105 0.12873L75.6601 0.167123L75.6571 6.58478H64.6993Z" fill="#9A9A9A"/>
</svg>