<svg xmlns="http://www.w3.org/2000/svg" width="76" height="30" viewBox="0 0 76 30" fill="none">
  <mask id="mask0_6_66" style="mask-type:luminance" maskUnits="userSpaceOnUse" x="0" y="0" width="76" height="30">
    <path d="M0.538574 0V6.20948H4.72339V23.8653H0.652514V30H15.2149V23.8653H11.03V6.20948H15.1008V0H0.538574ZM41.9865 0.074813V6.20948H46.1713V23.8653H42.1005V30H52.4778V12.9307L58.6615 29.994L58.7872 29.997L64.8599 12.9307V30H75.3509V23.8653H71.1661V6.20948H75.237V0.074813H63.5415L58.6992 13.7574L53.7954 0.074813H41.9865Z" fill="white"/>
    <path d="M17.1643 0.0748138V6.20948H21.3491V15.9352H37.4571V14.0702C37.4571 14.0702 38.8046 13.0197 39.2339 12.0228L40.096 10.0885C40.096 10.0885 40.4964 9.00584 40.4964 8.03828L40.3239 6.10399C40.3239 6.10399 40.0534 4.52821 39.5816 4.0595L37.9159 2.12222C37.9159 2.12222 35.7962 0.0748138 32.9887 0.0748138H17.1643ZM27.6553 6.20948H33.7894V11.8953H27.6553V6.20948Z" fill="white"/>
    <path d="M17.1643 30V23.8653H21.3491V14.1397H37.4571V16.0046C37.4571 16.0046 38.8046 17.0551 39.2339 18.052L40.096 19.9863C40.096 19.9863 40.4964 21.069 40.4964 22.0365L40.3239 23.9708C40.3239 23.9708 40.0534 25.5466 39.5816 26.0153L37.9159 27.9526C37.9159 27.9526 35.7962 30 32.9887 30H17.1643ZM27.6553 23.8653H33.7894V18.1796H27.6553V23.8653Z" fill="white"/>
  </mask>
  <g mask="url(#mask0_6_66)">
    <path d="M0.538574 1.09848H77.5959V5.08092H0.538574M0.538574 9.06337H73.4812V13.0466H0.538574V17.0283H73.4812V21.01H0.538574M0.538574 24.9931H77.5959V28.9763H0.538574" fill="#9A9A9A"/>
    <path d="M0.538574 1.09848H77.5959V5.08092H0.538574M0.538574 9.06337H73.4812V13.0466H0.538574V17.0283H73.4812V21.01H0.538574M0.538574 24.9931H77.5959V28.9763H0.538574" stroke="#9A9A9A" stroke-width="25.2648"/>
  </g>
</svg>