<svg xmlns="http://www.w3.org/2000/svg" width="150" height="30" viewBox="0 0 150 30" fill="none">
  <path d="M38.9681 12.9663H47.3054C47.8836 12.9663 47.9955 13.5632 47.5479 14.2906L45.8692 17.051C45.4216 17.7784 44.5823 18.3753 44.0041 18.3753H35.6668C35.0886 18.3753 34.9766 17.7784 35.4243 17.051L37.1029 14.2906C37.5506 13.5632 38.3899 12.9663 38.9681 12.9663Z" fill="#9A9A9A"/>
  <path d="M78.8267 0.0221395C81.8856 -0.257635 85.5226 2.14843 83.7321 5.30056C82.0161 8.15426 75.8051 8.88168 73.94 8.71381C73.3431 8.65786 72.3732 8.28483 72.3919 7.33359C72.4105 6.66213 72.7836 4.31202 74.0705 2.46551C75.4134 0.656296 77.3905 0.115398 78.8267 0.0221395Z" fill="#9A9A9A"/>
  <path d="M97.9259 6.12118C98.8771 5.69219 98.9704 6.73669 98.9331 7.05376V9.47848C98.9331 9.94477 99.3248 9.72095 99.5299 9.64635C102.402 8.43399 105.312 6.62478 109.005 6.71803C112.288 6.79264 113.276 9.38522 113.258 12.3695V25.0713C113.258 26.1904 113.351 26.4515 113.873 26.8805C114.041 26.9737 114.918 27.0483 115.253 27.0483C115.608 27.0483 115.608 27.3095 115.514 27.5706L114.731 29.5663C114.563 29.9021 114.209 29.9953 113.948 29.9953H106.487C103.894 29.9021 103.111 27.9623 103.148 26.9737V14.8875C103.148 12.4068 99.101 12.2203 99.101 15.5589V25.7427C99.1383 26.2277 98.989 26.8618 100.295 26.9551C101.153 26.9551 101.768 26.8618 101.339 27.9063L100.705 29.5104C100.556 29.8088 100.201 29.9953 99.8657 29.9767H87.5369C87.2758 29.9767 87.0706 29.6782 87.1079 29.4544L87.9846 27.1976C88.0219 27.1043 88.1151 26.9364 88.227 26.9364C88.6374 26.9178 88.9171 26.7126 88.9918 25.5562V12.3135C88.9918 11.2317 88.0032 11.3623 87.2571 11.3623C86.9214 11.3623 86.7349 11.269 86.8282 10.8401L87.5183 9.36657C87.6115 9.01219 87.7794 8.88163 88.0405 8.84432C92.1066 8.22882 94.4567 7.94904 97.9259 6.12118Z" fill="#9A9A9A"/>
  <path d="M128.03 0.544433C128.738 0.432523 129.149 0.861511 129.149 1.64488V14.328C129.242 15.0181 129.746 14.5518 129.895 14.3467L134.278 8.78847C134.744 8.21027 135.863 8.09836 136.554 8.09836H146.103C146.271 8.09836 146.364 8.30353 146.196 8.52735L144.984 10.1687C144.872 10.3179 144.779 10.5044 144.201 10.5044H143.734C143.305 10.5231 143.212 10.6723 143.044 10.7655L138.139 16.2678C137.113 17.4988 137.356 18.021 138.269 18.8977L145.003 25.7988C146.495 26.8433 147.856 26.9179 149.405 27.0111C149.815 27.0298 149.722 27.3655 149.572 27.5334L147.838 29.5291C147.67 29.7902 146.905 29.9581 146.476 29.9581H139.799C138.941 29.9581 137.393 29.697 136.181 28.9136C133.756 26.9179 132.226 24.3999 129.858 22.1617C129.447 21.77 129.112 21.9565 129.112 22.2923V25.1833C129.112 26.4889 129.652 26.8246 131.555 26.9179C132.282 26.9552 132.077 27.3469 131.909 27.7759L131.275 29.4172C131.089 29.8089 130.846 29.9395 130.51 29.9395H116.708C116.279 29.9395 115.999 29.8089 116.093 29.5478L116.857 27.5147C117.025 27.1231 117.137 27.0298 117.715 26.9925C118.667 26.9365 119.021 26.6195 119.04 25.2019V6.55027C119.04 5.91611 118.89 5.67364 118.443 5.7296L116.69 5.97207C116.167 6.04667 116.074 5.65499 116.279 5.28196L117.361 3.47274C117.566 3.11836 117.939 3.08106 118.35 3.00645C121.875 2.42825 125.437 1.40241 127.619 0.581736C127.75 0.61904 127.862 0.563085 128.03 0.544433Z" fill="#9A9A9A"/>
  <path d="M83.4898 8.02364C83.9188 7.85577 84.4411 8.1915 84.3478 9.14274V25.5749C84.5716 26.7313 84.9447 27.011 85.9705 27.1229C85.9705 27.1229 86.6793 27.1416 86.4928 27.6452L85.8213 29.3798C85.5602 29.902 85.3923 29.9953 84.7768 29.9953H71.9258C71.5901 29.9767 71.4595 29.7528 71.5714 29.3798L72.2056 27.7385C72.3175 27.5146 72.3735 27.2908 72.8024 27.2162C74.1081 26.8618 74.1827 26.694 74.1827 24.9594V15.1299C74.1827 13.4886 73.9215 13.5632 72.0191 13.7497C71.6833 13.6564 71.702 13.3394 71.758 13.2275L72.7092 11.4182C72.9703 10.896 73.306 10.896 73.306 10.896C76.9618 10.6162 80.5988 9.70229 83.4898 8.02364Z" fill="#9A9A9A"/>
  <path d="M18.6193 29.9767C21.417 30.014 24.793 30.1633 27.9264 27.7199C30.1646 26.2464 32.8505 20.2779 33.8204 17.8159C34.3053 16.5289 34.4359 14.8316 33.8204 13.5446C32.1231 9.70238 29.6611 5.4125 28.0384 3.67789C25.7069 1.53295 23.5247 1.34644 19.8876 1.34644H4.3694C3.71659 1.34644 2.98917 1.5143 2.72805 1.96194L1.60895 4.03228C1.44109 4.89025 2.46693 4.98351 2.46693 4.98351H4.05232C4.48131 4.98351 4.57457 5.31924 4.57457 5.67362V24.8848C4.57457 25.7428 3.60468 26.2651 2.82131 26.4329C2.46693 26.5262 1.96333 26.6194 1.70221 27.0484L0.583109 29.212C0.415244 29.641 0.750974 29.9954 1.10536 29.9954C7.20445 29.9954 12.5015 30.014 18.6193 29.9767ZM14.6838 26.4143V5.76688C14.6838 5.24463 14.777 4.98351 15.2806 4.9089H16.7914C17.3323 4.9089 18.1157 4.79699 18.6006 5.65497L23.8044 14.7383C24.2334 15.6896 24.1029 16.0812 23.8044 16.7341L18.526 25.6496C17.8919 26.5262 17.5934 26.3583 16.7914 26.4143C16.7728 26.4143 16.8101 26.4143 16.7914 26.4143H14.6838Z" fill="#9A9A9A"/>
  <path d="M62.9167 1.55161C63.5881 1.55161 63.8306 1.9433 63.7 2.20442L62.3198 4.72239C62.3198 4.72239 62.1519 5.24464 60.9396 5.24464H60.809C60.0257 5.24464 59.4101 5.24464 59.3355 6.81138V25.0527C59.3355 25.8361 59.6713 26.4889 60.6225 26.5262H62.5063C65.5838 26.4889 65.5092 23.3181 66.1994 20.5577C66.3672 20.1287 66.4605 19.8675 66.9827 19.6064L69.7059 18.6552C70.0602 18.6552 70.396 18.6552 70.4892 19.252V28.4287C70.5825 29.2866 69.7991 30.07 68.7546 29.9767H45.3281C44.4702 29.9767 44.2836 29.7156 44.4702 29.1934L45.3281 27.2909C45.3281 27.2909 45.5893 26.7687 46.3726 26.7687C48.1072 26.6754 49.189 26.6567 49.1704 24.0082V6.96059C49.1704 5.84149 48.9093 5.15138 47.7715 5.15138H46.4472C45.5893 5.15138 45.123 4.85296 45.3281 4.36801L46.5405 2.11116C46.8203 1.60757 47.0627 1.53296 47.4917 1.53296H62.9167" fill="#9A9A9A"/>
</svg>