<svg xmlns="http://www.w3.org/2000/svg" width="240" height="30" viewBox="0 0 240 30" fill="none">
  <path d="M100.165 19.5177H115.414L107.35 6.54548L92.5519 30H85.8168L103.817 1.82611C104.599 0.687727 105.904 0 107.35 0C108.75 0 110.054 0.66402 110.813 1.77866L128.884 30H122.149L118.971 24.7588H103.532L100.165 19.5177ZM170.125 24.7588V0.284596H164.41V27.1541C164.41 27.8893 164.694 28.6008 165.24 29.1462C165.785 29.6917 166.52 30 167.327 30H193.39L196.757 24.7588H170.125ZM75.5717 20.3715C81.1212 20.3715 85.6271 15.8893 85.6271 10.3399C85.6271 4.79053 81.1212 0.284596 75.5717 0.284596H50.5685V30H56.2817V5.52567H75.1923C77.8485 5.52567 79.9828 7.68376 79.9828 10.3399C79.9828 12.996 77.8485 15.1542 75.1923 15.1542L59.0801 15.1304L76.1409 29.9999H84.4413L72.9631 20.3715L75.5717 20.3715ZM15.3988 30C7.19547 30 0.538574 23.3596 0.538574 15.1542C0.538574 6.94862 7.19554 0.284596 15.3988 0.284596H32.6706C40.8761 0.284596 47.5283 6.94862 47.5283 15.1542C47.5283 23.3596 40.8761 30 32.6706 30H15.3988ZM32.2864 24.7588C37.6011 24.7588 41.9055 20.4663 41.9055 15.1542C41.9055 9.84188 37.6011 5.52567 32.2864 5.52567H15.7805C10.4683 5.52567 6.16144 9.84188 6.16144 15.1542C6.16144 20.4663 10.4683 24.7588 15.7805 24.7588H32.2864ZM140.813 30C132.607 30 125.943 23.3596 125.943 15.1542C125.943 6.94862 132.607 0.284596 140.813 0.284596H161.327L157.983 5.52567H141.192C135.88 5.52567 131.564 9.84188 131.564 15.1542C131.564 20.4663 135.88 24.7588 141.192 24.7588H161.801L158.433 30H140.813ZM210.702 24.7588C206.315 24.7588 202.591 21.8181 201.453 17.7628H225.88L229.247 12.5217H201.453C202.591 8.49009 206.315 5.52567 210.702 5.52567H227.469L230.86 0.284596H210.323C202.117 0.284596 195.453 6.94862 195.453 15.1542C195.453 23.3596 202.117 30 210.323 30H227.943L231.311 24.7588H210.702ZM233.919 3.43875C233.918 3.09589 233.985 2.75622 234.116 2.43926C234.247 2.12231 234.439 1.83433 234.681 1.59189C234.924 1.34945 235.212 1.15733 235.529 1.02658C235.846 0.895837 236.185 0.829044 236.528 0.830044C237.998 0.830044 239.16 1.9921 239.16 3.43875C239.16 4.90907 237.998 6.07112 236.528 6.07112C235.081 6.07112 233.919 4.90907 233.919 3.43875ZM236.528 6.8063C238.378 6.8063 239.872 5.31224 239.872 3.46245C239.872 1.61264 238.378 0.118572 236.528 0.118572C234.702 0.118572 233.208 1.61264 233.208 3.46245C233.208 5.31224 234.702 6.8063 236.528 6.8063ZM236.22 1.47036C236.741 1.47036 236.955 1.49406 237.192 1.58889C237.856 1.80237 237.927 2.39523 237.927 2.63241C237.927 2.67982 237.927 2.7984 237.88 2.94068C237.856 3.08299 237.761 3.36755 237.429 3.58099C237.382 3.60473 237.358 3.62844 237.263 3.67589L238.117 5.21737H237.287L236.528 3.79446H236.006V5.21737H235.271V1.47036H236.22ZM236.481 3.17786C236.718 3.15415 236.955 3.15415 237.097 2.94068C237.168 2.84585 237.192 2.75098 237.192 2.6087C237.192 2.41897 237.073 2.25295 236.908 2.15808C236.741 2.08696 236.575 2.08696 236.22 2.08696H236.006V3.17786H236.481Z" fill="#9A9A9A"/>
</svg>