<svg xmlns="http://www.w3.org/2000/svg" width="235" height="50" viewBox="0 0 235 50" fill="none">
  <path d="M83.1744 28.7985L81.7791 32.752H81.6628C81.4302 31.8605 81.0039 30.504 80.3062 28.876L72.8256 10.0776H65.5V40.0388H70.345V21.5505C70.345 20.3877 70.345 19.0698 70.3062 17.4419C70.2674 16.628 70.1899 16.0078 70.1512 15.5427H70.2674C70.5 16.7055 70.7713 17.5582 70.9651 18.1008L79.9574 39.9613H83.3682L92.2829 17.9071C92.4767 17.4032 92.6705 16.3954 92.8643 15.5427H92.9806C92.8643 17.752 92.7868 19.7288 92.7481 20.9303V39.9226H97.9031V10.0001H90.8488L83.1744 28.7985ZM102.787 18.4497H107.826V39.9226H102.787V18.4497ZM105.345 9.37992C104.492 9.37992 103.795 9.69 103.213 10.2326C102.632 10.7753 102.322 11.4729 102.322 12.3257C102.322 13.1396 102.632 13.8373 103.213 14.3799C103.795 14.9226 104.492 15.1939 105.345 15.1939C106.198 15.1939 106.934 14.8838 107.477 14.3799C108.058 13.8373 108.368 13.1396 108.368 12.3257C108.368 11.5117 108.058 10.814 107.477 10.2326C106.973 9.69 106.236 9.37992 105.345 9.37992ZM125.694 18.2559C124.764 18.0621 123.795 17.9458 122.864 17.9458C120.578 17.9458 118.484 18.4497 116.74 19.4574C114.996 20.4652 113.601 21.8605 112.709 23.6047C111.779 25.3877 111.314 27.4419 111.314 29.8063C111.314 31.8605 111.779 33.6822 112.671 35.3489C113.562 36.9768 114.802 38.2946 116.469 39.1861C118.058 40.0776 119.919 40.5427 122.012 40.5427C124.415 40.5427 126.469 40.0388 128.097 39.1086L128.136 39.0698V34.4187L127.942 34.5737C127.205 35.1164 126.353 35.5815 125.5 35.8528C124.609 36.1629 123.795 36.3179 123.097 36.3179C121.081 36.3179 119.492 35.7365 118.368 34.4574C117.205 33.2171 116.624 31.5117 116.624 29.3799C116.624 27.1706 117.205 25.4264 118.407 24.1474C119.609 22.8683 121.198 22.2094 123.136 22.2094C124.764 22.2094 126.43 22.752 127.942 23.8373L128.136 23.9923V19.0698L128.097 19.0311C127.438 18.7598 126.702 18.4497 125.694 18.2559ZM142.322 18.1008C141.081 18.1008 139.919 18.4884 138.911 19.3024C138.058 20.0001 137.477 21.0078 136.973 22.2094H136.934V18.4497H131.895V39.9226H136.934V28.9536C136.934 27.0931 137.322 25.5427 138.174 24.4187C139.027 23.2559 140.112 22.6745 141.43 22.6745C141.895 22.6745 142.36 22.7908 142.942 22.8683C143.484 23.0233 143.872 23.1784 144.143 23.3722L144.337 23.5272V18.4884L144.221 18.4497C143.872 18.2171 143.174 18.1008 142.322 18.1008ZM156.043 17.9846C152.516 17.9846 149.686 19.0311 147.709 21.0853C145.694 23.1396 144.725 25.9691 144.725 29.535C144.725 32.8683 145.733 35.5815 147.671 37.5582C149.609 39.4962 152.244 40.504 155.539 40.504C158.988 40.504 161.74 39.4574 163.717 37.3644C165.733 35.2714 166.702 32.4807 166.702 29.0311C166.702 25.6202 165.771 22.9071 163.872 20.9303C162.05 18.9536 159.376 17.9846 156.043 17.9846ZM160.074 34.4962C159.143 35.6978 157.671 36.2791 155.849 36.2791C154.027 36.2791 152.554 35.6978 151.508 34.4187C150.461 33.2171 149.957 31.4729 149.957 29.2636C149.957 26.9768 150.5 25.2326 151.508 23.9923C152.554 22.752 153.988 22.1319 155.81 22.1319C157.593 22.1319 158.988 22.7133 159.996 23.9148C161.004 25.1164 161.547 26.8605 161.547 29.1474C161.469 31.4729 161.043 33.2946 160.074 34.4962ZM177.942 27.3644C176.353 26.7055 175.345 26.2016 174.88 25.7753C174.492 25.3877 174.298 24.845 174.298 24.1474C174.298 23.566 174.531 22.9846 175.112 22.597C175.694 22.2094 176.353 22.0156 177.322 22.0156C178.174 22.0156 179.066 22.1706 179.919 22.4032C180.771 22.6357 181.547 22.9846 182.167 23.4497L182.36 23.6047V18.876L182.244 18.8373C181.663 18.6047 180.888 18.3722 179.957 18.1784C179.027 18.0233 178.174 17.9458 177.477 17.9458C175.074 17.9458 173.097 18.5272 171.547 19.8063C169.996 21.0078 169.26 22.6357 169.26 24.535C169.26 25.5427 169.415 26.4342 169.764 27.1706C170.112 27.9071 170.616 28.6047 171.314 29.1861C172.012 29.7288 173.019 30.3489 174.415 30.9303C175.578 31.4342 176.469 31.8218 177.012 32.1319C177.554 32.4419 177.903 32.7908 178.174 33.0621C178.368 33.3722 178.484 33.7598 178.484 34.2636C178.484 35.6978 177.399 36.3954 175.19 36.3954C174.337 36.3954 173.446 36.2404 172.399 35.8915C171.353 35.5427 170.384 35.0388 169.57 34.4574L169.376 34.3024V39.2249L169.492 39.2636C170.229 39.6125 171.12 39.845 172.205 40.1164C173.291 40.3102 174.26 40.4652 175.112 40.4652C177.709 40.4652 179.841 39.8838 181.353 38.6047C182.903 37.3644 183.717 35.7753 183.717 33.721C183.717 32.2869 183.329 31.0078 182.477 30.0388C181.353 29.1086 179.957 28.1396 177.942 27.3644ZM197.012 17.9846C193.484 17.9846 190.655 19.0311 188.678 21.0853C186.702 23.1396 185.694 25.9691 185.694 29.535C185.694 32.8683 186.702 35.5815 188.64 37.5582C190.578 39.4962 193.213 40.504 196.508 40.504C199.957 40.504 202.709 39.4574 204.686 37.3644C206.702 35.2714 207.671 32.4807 207.671 29.0311C207.671 25.6202 206.74 22.9071 204.841 20.9303C203.019 18.9536 200.345 17.9846 197.012 17.9846ZM201.004 34.4962C200.074 35.6978 198.601 36.2791 196.779 36.2791C194.919 36.2791 193.484 35.6978 192.438 34.4187C191.391 33.2171 190.888 31.4729 190.888 29.2636C190.888 26.9768 191.43 25.2326 192.438 23.9923C193.484 22.752 194.919 22.1319 196.74 22.1319C198.484 22.1319 199.919 22.7133 200.926 23.9148C201.934 25.1164 202.477 26.8605 202.477 29.1474C202.477 31.4729 201.973 33.2946 201.004 34.4962ZM234.609 22.597V18.4497H229.531V12.0931L229.376 12.1319L224.57 13.566L224.453 13.6047V18.4497H216.857V15.7365C216.857 14.4962 217.167 13.5272 217.709 12.9071C218.252 12.2869 219.066 11.9768 220.074 11.9768C220.771 11.9768 221.508 12.1319 222.322 12.4807L222.516 12.597V8.21713L222.399 8.17837C221.702 7.94581 220.771 7.79077 219.57 7.79077C218.058 7.79077 216.74 8.13961 215.539 8.721C214.337 9.37992 213.446 10.2714 212.787 11.4729C212.128 12.6357 211.779 13.9536 211.779 15.4652V18.4497H208.252V22.5582H211.779V39.9226H216.857V22.597H224.453V33.6435C224.453 38.1784 226.585 40.4652 230.849 40.4652C231.547 40.4652 232.283 40.3489 232.981 40.2326C233.717 40.0776 234.26 39.8838 234.57 39.7288L234.609 39.69V35.5427L234.415 35.6977C234.105 35.8915 233.833 36.0466 233.368 36.1629C232.981 36.2791 232.632 36.3179 232.36 36.3179C231.353 36.3179 230.655 36.0853 230.151 35.504C229.686 34.9613 229.453 34.0698 229.453 32.752V22.597H234.609Z" fill="#9A9A9A"/>
  <path d="M0.538574 0H24.2983V23.7597H0.538574V0Z" fill="#9A9A9A"/>
  <path d="M26.7788 0H50.5385V23.7597H26.7788V0Z" fill="#9A9A9A"/>
  <path d="M0.538574 26.2402H24.2983V49.9999H0.538574V26.2402Z" fill="#9A9A9A"/>
  <path d="M26.7788 26.2402H50.5385V49.9999H26.7788V26.2402Z" fill="#9A9A9A"/>
</svg>