<svg xmlns="http://www.w3.org/2000/svg" width="167" height="50" viewBox="0 0 167 50" fill="none">
  <path fill-rule="evenodd" clip-rule="evenodd" d="M103.471 39.1015C93.829 46.2083 79.8539 50 67.8215 50C50.9502 50 35.7617 43.7599 24.2709 33.3815C23.3683 32.5652 24.1772 31.4531 25.2604 32.0887C37.6611 39.3038 52.9941 43.6444 68.8326 43.6444C79.5144 43.6444 91.265 41.4343 102.07 36.8482C103.702 36.1548 105.067 37.9171 103.471 39.1015Z" fill="#9A9A9A"/>
  <path fill-rule="evenodd" clip-rule="evenodd" d="M107.479 34.5154C106.252 32.9409 99.3325 33.7714 96.2268 34.1398C95.2808 34.2554 95.1364 33.432 95.9886 32.8398C101.499 28.9615 110.542 30.0809 111.596 31.3809C112.65 32.6882 111.322 41.7521 106.143 46.0782C105.349 46.7427 104.59 46.3888 104.944 45.5076C106.107 42.6044 108.714 36.0971 107.479 34.5154Z" fill="#9A9A9A"/>
  <path fill-rule="evenodd" clip-rule="evenodd" d="M96.4434 5.46002V1.69004C96.4434 1.11945 96.8768 0.736675 97.3968 0.736675H114.275C114.817 0.736675 115.25 1.12658 115.25 1.69004V4.9183C115.243 5.46002 114.788 6.16783 113.979 7.28728L105.233 19.7746C108.483 19.6953 111.914 20.1791 114.86 21.8403C115.525 22.2157 115.705 22.7648 115.756 23.3063V27.3292C115.756 27.878 115.149 28.5208 114.514 28.1886C109.321 25.4659 102.424 25.1697 96.6818 28.2175C96.0968 28.5354 95.4829 27.8997 95.4829 27.3509V23.5303C95.4829 22.9164 95.49 21.8691 96.1039 20.9375L106.237 6.40625H97.4183C96.8768 6.40625 96.4434 6.02348 96.4434 5.46002ZM34.8734 28.983H29.7383C29.2472 28.947 28.8573 28.5787 28.8211 28.1091V1.75508C28.8211 1.22779 29.2616 0.808849 29.8105 0.808849H34.5989C35.0973 0.830419 35.4945 1.21336 35.5306 1.68987V5.13516H35.6246C36.8739 1.80568 39.2212 0.253025 42.3845 0.253025C45.5984 0.253025 47.6063 1.80568 49.0508 5.13516C50.293 1.80568 53.1169 0.253025 56.1431 0.253025C58.2952 0.253025 60.6498 1.14135 62.087 3.13469C63.712 5.35185 63.3798 8.57297 63.3798 11.3969L63.3725 28.0298C63.3725 28.5571 62.932 28.9832 62.3831 28.9832H57.2553C56.7426 28.9472 56.3308 28.5355 56.3308 28.0298V14.0619C56.3308 12.9496 56.432 10.1761 56.1864 9.12183C55.8036 7.35232 54.6553 6.8539 53.1674 6.8539C51.9252 6.8539 50.6252 7.68448 50.0979 9.01349C49.5708 10.3425 49.6214 12.5668 49.6214 14.0619V28.0297C49.6214 28.5569 49.1807 28.983 48.6318 28.983H43.504C42.984 28.947 42.5795 28.5354 42.5795 28.0297L42.5724 14.0619C42.5724 11.1223 43.0562 6.79633 39.409 6.79633C35.7185 6.79633 35.8628 11.014 35.8628 14.0619V28.0297C35.8628 28.5569 35.4223 28.983 34.8734 28.983ZM129.782 0.252859C137.401 0.252859 141.525 6.79616 141.525 15.1163C141.525 23.1547 136.968 29.532 129.781 29.532C122.299 29.532 118.226 22.9886 118.226 14.8345C118.226 6.63008 122.35 0.252859 129.782 0.252859ZM129.825 5.63341C126.04 5.63341 125.802 10.7901 125.802 14.004C125.802 17.2253 125.752 24.1007 129.782 24.1007C133.761 24.1007 133.949 18.5541 133.949 15.174C133.949 12.9496 133.855 10.2917 133.183 8.1829C132.606 6.34835 131.457 5.63341 129.825 5.63341ZM151.405 28.983H146.292C145.779 28.947 145.367 28.5354 145.367 28.0297L145.36 1.6683C145.403 1.18449 145.83 0.808849 146.349 0.808849H151.109C151.557 0.830419 151.925 1.13405 152.026 1.54552V5.57567H152.12C153.557 1.97177 155.572 0.252859 159.119 0.252859C161.422 0.252859 163.669 1.08328 165.113 3.35834C166.456 5.46716 166.456 9.01349 166.456 11.563V28.1524C166.399 28.6147 165.973 28.983 165.467 28.983H160.317C159.848 28.947 159.458 28.6003 159.407 28.1524V13.8379C159.407 10.9562 159.74 6.73825 156.194 6.73825C154.944 6.73825 153.796 7.57614 153.225 8.84724C152.503 10.458 152.409 12.0612 152.409 13.838V28.0297C152.402 28.5569 151.954 28.983 151.405 28.983ZM82.9883 16.3947C82.9883 18.3951 83.0389 20.0636 82.0276 21.8401C81.2116 23.2847 79.9117 24.1729 78.4743 24.1729C76.5027 24.1729 75.3471 22.6708 75.3471 20.4535C75.3471 16.0768 79.2689 15.2824 82.9883 15.2824V16.3947ZM88.1666 28.9109C87.8273 29.2141 87.3362 29.2359 86.9534 29.0336C85.2489 27.618 84.9383 26.9608 84.0067 25.6102C81.1899 28.4848 79.1894 29.3442 75.5421 29.3442C71.2159 29.3442 67.8576 26.6791 67.8576 21.342C67.8576 17.1747 70.1109 14.3363 73.332 12.9496C76.1199 11.7218 80.0127 11.5051 82.9885 11.1656V10.5013C82.9885 9.28061 83.0822 7.83613 82.36 6.78173C81.7389 5.83566 80.5398 5.44559 79.4783 5.44559C77.521 5.44559 75.7805 6.44939 75.3544 8.5295C75.2676 8.99175 74.9282 9.4467 74.4588 9.46843L69.4826 8.93401C69.0638 8.8401 68.5943 8.50063 68.717 7.85787C69.8582 1.82012 75.3182 0 80.2007 0C82.6996 0 85.964 0.664501 87.9358 2.55679C90.4345 4.8896 90.1963 8.00222 90.1963 11.3896V19.3918C90.1963 21.797 91.1931 22.8512 92.1319 24.1513C92.457 24.6136 92.5291 25.1697 92.1103 25.5163C91.063 26.3902 89.1996 28.0152 88.174 28.9253L88.1669 28.9109M15.6693 16.3947C15.6693 18.3951 15.7199 20.0636 14.7086 21.8401C13.8926 23.2847 12.5998 24.1729 11.1553 24.1729C9.18372 24.1729 8.03524 22.6708 8.03524 20.4535C8.03524 16.0768 11.957 15.2824 15.6693 15.2824V16.3947ZM20.8476 28.9109C20.5083 29.2141 20.0172 29.2359 19.6344 29.0336C17.9299 27.618 17.6265 26.9608 16.6877 25.6102C13.8709 28.4848 11.8777 29.3442 8.22306 29.3442C3.90422 29.3442 0.538574 26.6791 0.538574 21.342C0.538574 17.1747 2.7992 14.3363 6.01303 12.9496C8.80095 11.7218 12.6937 11.5051 15.6693 11.1656V10.5013C15.6693 9.28061 15.7632 7.83613 15.0481 6.78173C14.4198 5.83566 13.221 5.44559 12.1664 5.44559C10.2093 5.44559 8.46148 6.44939 8.03524 8.5295C7.94863 8.99175 7.60916 9.4467 7.14691 9.46843L2.16357 8.93401C1.74463 8.8401 1.28255 8.50063 1.39803 7.85787C2.54635 1.82012 7.99924 0 12.8815 0C15.3803 0 18.6449 0.664501 20.6166 2.55679C23.1153 4.8896 22.8771 8.00222 22.8771 11.3896V19.3918C22.8771 21.797 23.8738 22.8512 24.8127 24.1513C25.145 24.6136 25.2172 25.1697 24.7982 25.5163C23.751 26.3902 21.8877 28.0152 20.8622 28.9253L20.8476 28.9109Z" fill="#9A9A9A"/>
</svg>