<svg xmlns="http://www.w3.org/2000/svg" width="210" height="50" viewBox="0 0 210 50" fill="none">
  <path d="M99.3423 30.5383L96.6479 38.0237C96.6479 38.3245 96.3482 38.3245 96.3482 38.3245H92.1566C91.8569 38.3245 91.8569 38.3245 91.8569 38.0237C94.2517 31.7371 97.845 20.9583 100.539 13.7715C100.539 13.4733 100.839 12.8739 100.839 11.3769C100.839 11.0773 100.839 11.0773 101.139 11.0773H106.827C107.127 10.7776 107.127 11.0773 107.127 11.0773C110.12 19.7597 113.713 29.0416 116.707 37.7255C116.707 38.0239 116.707 38.0239 116.409 38.0239H111.617C111.318 38.0239 111.318 38.0239 111.318 37.7255L108.623 30.2405H99.3423V30.5383ZM107.725 26.3473C106.827 23.6529 104.731 17.9646 104.133 14.9704C103.534 17.6649 101.737 22.4554 100.54 26.3473H107.725ZM119.403 28.144C119.403 22.1557 123.894 17.365 131.078 17.365C131.979 17.365 132.876 17.365 133.476 17.6647V8.6825C133.476 8.38281 133.476 8.38281 133.774 8.38281H138.265C138.563 8.38281 138.563 8.38281 138.563 8.6825V35.9274C138.563 36.2281 138.563 36.2281 138.265 36.2281C135.569 37.4242 132.575 38.3245 129.882 38.3245C123.593 38.6231 119.403 35.3308 119.403 28.144ZM133.174 21.8561C132.575 21.5564 131.677 21.5564 130.78 21.5564C126.888 21.5564 124.493 23.9526 124.493 28.144C124.493 32.9331 127.186 34.7314 130.482 34.7314C131.379 34.7314 132.575 34.4302 133.476 34.4302V21.8561H133.174ZM163.714 27.8458C163.714 34.4305 159.522 38.6231 153.534 38.6231C146.349 38.6231 143.356 33.2344 143.356 28.144C143.356 21.8561 147.545 17.6647 153.835 17.6647C160.121 17.365 163.714 22.1557 163.714 27.8458ZM148.446 27.8458C148.446 32.0357 150.241 34.7316 153.534 34.7316C156.229 34.7316 158.326 32.9333 158.326 27.8458C158.326 23.9526 156.829 20.9585 153.236 20.9585C150.539 21.2567 148.446 23.6529 148.446 27.8458ZM172.697 8.6825C172.995 8.6825 172.995 8.6825 172.995 8.98218V18.5622C174.492 17.9643 175.989 17.6647 177.486 17.6647C183.176 17.6647 186.769 21.8561 186.769 27.2464C186.769 34.4302 181.079 38.9213 174.492 38.9213C172.398 38.9213 170.302 38.6229 168.206 38.0237C167.907 38.0237 167.907 37.7253 167.907 37.7253V8.98218C167.907 8.6825 167.907 8.6825 168.206 8.6825H172.697ZM176.589 21.5564C175.393 21.5564 174.194 21.8561 173.296 22.1557V34.4302C173.896 34.7314 174.793 34.7314 175.691 34.7314C178.685 34.7314 182.278 32.3366 182.278 27.5442C181.977 23.6529 179.583 21.5564 176.589 21.5564ZM196.351 29.0416C196.351 32.3368 198.445 34.4302 202.637 34.4302C204.134 34.4302 205.93 34.1318 207.728 33.5327C207.728 33.5327 208.026 33.5327 208.026 33.8338V37.1261C208.026 37.4242 208.026 37.4242 207.728 37.7253C206.231 38.6229 204.134 38.9213 201.438 38.9213C193.953 38.9213 190.959 33.8338 190.959 28.4418C190.959 22.4552 194.552 17.6644 200.842 17.6644C207.128 17.6644 209.523 22.4552 209.523 26.3469C209.523 28.1438 209.225 29.0414 209.225 29.0414L196.351 29.0416ZM202.935 25.7478C204.433 25.7478 204.734 25.4498 204.734 25.4498V24.8502C204.734 23.6529 203.836 20.9585 200.541 20.9585C197.848 20.9585 196.351 23.0533 196.05 25.7478H202.935Z" fill="#9A9A9A"/>
  <path d="M36.1675 0L57.126 50V0H36.1675ZM0.538574 0V50L21.497 0H0.538574ZM19.7002 39.8218H29.2819L33.4733 50H42.1558L28.6825 18.2625L19.7002 39.8218Z" fill="#9A9A9A"/>
</svg>