<svg xmlns="http://www.w3.org/2000/svg" width="152" height="51" viewBox="0 0 152 51" fill="none">
  <path d="M65.0012 26.3833C65.0012 33.5768 59.3737 38.8777 52.4674 38.8777C45.5611 38.8777 39.9336 33.5768 39.9336 26.3833C39.9336 19.139 45.5611 13.8889 52.4674 13.8889C59.3737 13.8889 65.0012 19.139 65.0012 26.3833ZM59.5145 26.3833C59.5145 21.888 56.2529 18.8123 52.4674 18.8123C48.6819 18.8123 45.4203 21.888 45.4203 26.3833C45.4203 30.8335 48.6819 33.9543 52.4674 33.9543C56.2529 33.9543 59.5145 30.8279 59.5145 26.3833Z" fill="#9A9A9A"/>
  <path d="M92.0403 26.3833C92.0403 33.5768 86.4127 38.8777 79.5065 38.8777C72.6002 38.8777 66.9727 33.5768 66.9727 26.3833C66.9727 19.1447 72.6002 13.8889 79.5065 13.8889C86.4127 13.8889 92.0403 19.139 92.0403 26.3833ZM86.5535 26.3833C86.5535 21.888 83.2919 18.8123 79.5065 18.8123C75.721 18.8123 72.4594 21.888 72.4594 26.3833C72.4594 30.8335 75.721 33.9543 79.5065 33.9543C83.2919 33.9543 86.5535 30.8279 86.5535 26.3833Z" fill="#9A9A9A"/>
  <path d="M117.953 14.6438V37.075C117.953 46.3022 112.511 50.0708 106.078 50.0708C100.022 50.0708 96.3777 46.0205 95.0032 42.7082L99.7801 40.7197C100.631 42.7533 102.715 45.153 106.072 45.153C110.19 45.153 112.742 42.6124 112.742 37.8299V36.0329H112.551C111.322 37.5482 108.957 38.872 105.971 38.872C99.7238 38.872 94.0005 33.4304 94.0005 26.4283C94.0005 19.3756 99.7238 13.8889 105.971 13.8889C108.951 13.8889 111.317 15.2127 112.551 16.683H112.742V14.6494H117.953V14.6438ZM113.131 26.4283C113.131 22.0288 110.196 18.8123 106.461 18.8123C102.676 18.8123 99.5041 22.0288 99.5041 26.4283C99.5041 30.7828 102.676 33.9543 106.461 33.9543C110.196 33.9543 113.131 30.7828 113.131 26.4283Z" fill="#9A9A9A"/>
  <path d="M126.543 1.49609V38.1117H121.192V1.49609H126.543Z" fill="#9A9A9A"/>
  <path d="M147.398 30.4955L151.656 33.3346C150.282 35.3682 146.97 38.872 141.246 38.872C134.148 38.872 128.848 33.3853 128.848 26.3777C128.848 18.9475 134.194 13.8833 140.632 13.8833C147.116 13.8833 150.287 19.0433 151.324 21.8317L151.893 23.2513L135.191 30.1688C136.469 32.6756 138.458 33.9543 141.246 33.9543C144.04 33.9543 145.978 32.5798 147.398 30.4955ZM134.289 26.0002L145.454 21.3641C144.84 19.8038 142.993 18.7166 140.818 18.7166C138.03 18.7166 134.148 21.1783 134.289 26.0002Z" fill="#9A9A9A"/>
  <path d="M19.6767 23.133V17.8322H37.5394C37.7141 18.756 37.8042 19.8489 37.8042 21.0318C37.8042 25.0088 36.717 29.9266 33.2132 33.4304C29.8051 36.9793 25.4507 38.8721 19.6823 38.8721C8.99054 38.8721 0 30.1632 0 19.4714C0 8.77968 8.99054 0.0708008 19.6823 0.0708008C25.5971 0.0708008 29.8107 2.39167 32.9766 5.41668L29.2361 9.1571C26.966 7.02776 23.8903 5.37161 19.6767 5.37161C11.8691 5.37161 5.76273 11.6639 5.76273 19.4714C5.76273 27.279 11.8691 33.5713 19.6767 33.5713C24.7409 33.5713 27.6251 31.5377 29.4727 29.69C30.9712 28.1916 31.957 26.051 32.3456 23.1274L19.6767 23.133Z" fill="#9A9A9A"/>
</svg>