<svg xmlns="http://www.w3.org/2000/svg" width="96" height="50" viewBox="0 0 96 50" fill="none">
  <path d="M47.3041 33.4508C47.1802 33.417 45.2746 32.9255 43.2495 32.9255C39.4153 32.9255 37.1069 34.9959 37.1069 38.079C37.1069 40.8082 39.038 42.1692 41.3556 42.9014C41.6126 42.9861 41.9912 43.1047 42.2433 43.1882C43.2749 43.5127 44.0984 43.995 44.0984 44.8303C44.0984 45.7645 43.1467 46.3693 41.0776 46.3693C39.2594 46.3693 37.5162 45.8492 37.1491 45.7566V49.5499C37.3537 49.5934 39.4254 50.0001 41.6385 50.0001C44.8218 50.0001 48.4631 48.6091 48.4631 44.4684C48.4631 42.46 47.2334 40.611 44.5337 39.7528L43.386 39.3874C42.7013 39.1713 41.4791 38.8213 41.4791 37.8177C41.4791 37.025 42.3847 36.4668 44.0523 36.4668C45.4911 36.4668 47.2422 36.9503 47.3041 36.9696V33.4508ZM82.4576 41.463C82.4576 43.8615 80.6204 45.8018 78.1552 45.8018C75.6874 45.8018 73.8551 43.8615 73.8551 41.463C73.8551 39.0694 75.6874 37.1282 78.1552 37.1282C80.6204 37.1282 82.4576 39.0694 82.4576 41.463ZM78.1552 32.9308C73.0852 32.9308 69.4491 36.7549 69.4491 41.463C69.4491 46.1786 73.0852 50.0001 78.1552 50.0001C83.2248 50.0001 86.8662 46.1786 86.8662 41.463C86.8662 36.7549 83.2248 32.9308 78.1552 32.9308ZM31.5287 49.7067H27.3687V33.2229H31.5287" fill="#9A9A9A"/>
  <path d="M21.6506 33.5214C21.2597 33.4054 19.8148 32.9307 17.8577 32.9307C12.7956 32.9307 9.07959 36.54 9.07959 41.4629C9.07959 46.774 13.1817 49.9999 17.8577 49.9999C19.7155 49.9999 21.1337 49.5598 21.6506 49.4132V44.9883C21.4719 45.0875 20.1121 45.8632 18.156 45.8632C15.3847 45.8632 13.5971 43.9127 13.5971 41.4629C13.5971 38.9384 15.4619 37.0661 18.156 37.0661C20.1455 37.0661 21.4833 37.8589 21.6506 37.9463" fill="#9A9A9A"/>
  <path d="M65.0691 33.5214C64.6782 33.4054 63.2333 32.9307 61.2762 32.9307C56.2141 32.9307 52.498 36.54 52.498 41.4629C52.498 46.774 56.6001 49.9999 61.2762 49.9999C63.134 49.9999 64.5522 49.5598 65.0691 49.4132V44.9883C64.8903 45.0875 63.5306 45.8632 61.5744 45.8632C58.8031 45.8632 57.0156 43.9127 57.0156 41.4629C57.0156 38.9384 58.8804 37.0661 61.5744 37.0661C63.564 37.0661 64.9018 37.8589 65.0691 37.9463" fill="#9A9A9A"/>
  <path d="M27.3562 2.05762C27.3562 0.921428 26.4282 0 25.2906 0C24.1536 0 23.2256 0.921428 23.2256 2.05762V23.947C23.2258 24.4945 23.4435 25.0195 23.8307 25.4065C24.218 25.7936 24.7431 26.0109 25.2906 26.0108C25.5618 26.0109 25.8303 25.9576 26.0808 25.854C26.3314 25.7503 26.559 25.5983 26.7508 25.4067C26.9426 25.2151 27.0948 24.9875 27.1987 24.7371C27.3025 24.4866 27.3561 24.2182 27.3562 23.947V2.05762ZM16.0122 9.82783C16.0122 8.69208 15.0847 7.76933 13.9472 7.76933C12.8096 7.76933 11.8821 8.69208 11.8821 9.82783V19.8349C11.8823 20.3824 12.1 20.9074 12.4873 21.2944C12.8745 21.6814 13.3997 21.8987 13.9472 21.8986C14.4947 21.8987 15.0198 21.6814 15.4071 21.2944C15.7943 20.9074 16.012 20.3824 16.0122 19.8349V9.82783ZM4.66875 15.5075C4.66875 14.3713 3.74117 13.4503 2.60366 13.4503C1.46747 13.4503 0.538574 14.3713 0.538574 15.5075V19.8349C0.549718 20.3752 0.772186 20.8896 1.15825 21.2678C1.54432 21.646 2.06323 21.8578 2.60366 21.8578C3.1441 21.8578 3.66301 21.646 4.04907 21.2678C4.43514 20.8896 4.65761 20.3752 4.66875 19.8349" fill="#9A9A9A"/>
  <path d="M23.2254 2.05762C23.2254 0.921428 24.1534 0 25.2909 0C26.428 0 27.356 0.921428 27.356 2.05762V23.947C27.3558 24.4945 27.1381 25.0195 26.7508 25.4065C26.3635 25.7936 25.8384 26.0109 25.2909 26.0108C25.0198 26.0109 24.7513 25.9576 24.5007 25.854C24.2502 25.7503 24.0225 25.5983 23.8307 25.4067C23.6389 25.2151 23.4867 24.9875 23.3829 24.7371C23.279 24.4866 23.2255 24.2182 23.2254 23.947V2.05762ZM34.5693 9.82783C34.5693 8.69208 35.4969 7.76933 36.6344 7.76933C37.7719 7.76933 38.6995 8.69208 38.6995 9.82783V19.8349C38.6992 20.3824 38.4816 20.9074 38.0943 21.2944C37.707 21.6814 37.1819 21.8987 36.6344 21.8986C36.0869 21.8987 35.5618 21.6814 35.1745 21.2944C34.7872 20.9074 34.5695 20.3824 34.5693 19.8349V9.82783ZM45.9128 15.5075C45.9128 14.3713 46.8404 13.4503 47.9779 13.4503C49.1141 13.4503 50.043 14.3713 50.043 15.5075V19.8349C50.0318 20.3752 49.8094 20.8896 49.4233 21.2678C49.0372 21.646 48.5183 21.8578 47.9779 21.8578C47.4374 21.8578 46.9185 21.646 46.5325 21.2678C46.1464 20.8896 45.9239 20.3752 45.9128 19.8349" fill="#9A9A9A"/>
  <path d="M68.5867 2.05762C68.5867 0.921428 69.5147 0 70.6522 0C71.7893 0 72.7173 0.921428 72.7173 2.05762V23.947C72.7171 24.4945 72.4994 25.0195 72.1121 25.4065C71.7249 25.7936 71.1997 26.0109 70.6522 26.0108C70.3811 26.0109 70.1126 25.9576 69.8621 25.854C69.6115 25.7503 69.3838 25.5983 69.192 25.4067C69.0002 25.2151 68.8481 24.9875 68.7442 24.7371C68.6403 24.4866 68.5868 24.2182 68.5867 23.947V2.05762ZM79.9306 9.82783C79.9306 8.69208 80.8582 7.76933 81.9957 7.76933C83.1332 7.76933 84.0608 8.69208 84.0608 9.82783V19.8349C84.0606 20.3824 83.8429 20.9074 83.4556 21.2944C83.0684 21.6814 82.5432 21.8987 81.9957 21.8986C81.4482 21.8987 80.9231 21.6814 80.5358 21.2944C80.1486 20.9074 79.9309 20.3824 79.9306 19.8349V9.82783ZM91.2741 15.5075C91.2741 14.3713 92.2017 13.4503 93.3392 13.4503C94.4754 13.4503 95.4043 14.3713 95.4043 15.5075V19.8349C95.3932 20.3752 95.1707 20.8896 94.7846 21.2678C94.3986 21.646 93.8796 21.8578 93.3392 21.8578C92.7988 21.8578 92.2799 21.646 91.8938 21.2678C91.5077 20.8896 91.2853 20.3752 91.2741 19.8349" fill="#9A9A9A"/>
  <path d="M72.7175 2.05762C72.7175 0.921428 71.7895 0 70.652 0C69.5149 0 68.5869 0.921428 68.5869 2.05762V23.947C68.5871 24.4945 68.8048 25.0195 69.1921 25.4065C69.5793 25.7936 70.1045 26.0109 70.652 26.0108C70.9231 26.0109 71.1916 25.9576 71.4421 25.854C71.6927 25.7503 71.9204 25.5983 72.1122 25.4067C72.304 25.2151 72.4561 24.9875 72.56 24.7371C72.6639 24.4866 72.7174 24.2182 72.7175 23.947V2.05762ZM61.3736 9.82783C61.3736 8.69208 60.446 7.76933 59.3085 7.76933C58.171 7.76933 57.2434 8.69208 57.2434 9.82783V19.8349C57.2436 20.3824 57.4613 20.9074 57.8486 21.2944C58.2358 21.6814 58.761 21.8987 59.3085 21.8986C59.856 21.8987 60.3811 21.6814 60.7684 21.2944C61.1556 20.9074 61.3733 20.3824 61.3736 19.8349V9.82783ZM50.0301 15.5075C50.0301 14.3713 49.1025 13.4503 47.965 13.4503C46.8288 13.4503 45.8999 14.3713 45.8999 15.5075V19.8349C45.911 20.3752 46.1335 20.8896 46.5196 21.2678C46.9056 21.646 47.4246 21.8578 47.965 21.8578C48.5054 21.8578 49.0243 21.646 49.4104 21.2678C49.7965 20.8896 50.0189 20.3752 50.0301 19.8349" fill="#9A9A9A"/>
</svg>