<svg xmlns="http://www.w3.org/2000/svg" width="20" height="20" viewBox="0 0 20 20" fill="none">
  <path d="M12.3567 15.8925C12.8367 16.3725 12.5784 17.1917 11.9117 17.315C11.9051 17.3159 11.8984 17.3175 11.8918 17.3184C11.6234 17.3675 11.3451 17.2742 11.1518 17.0809L1.84686 7.77679C1.54603 7.47596 1.51603 7.00014 1.77769 6.66514C1.78102 6.66097 1.78436 6.65597 1.78852 6.65181C2.09769 6.25681 2.68851 6.22348 3.04268 6.57847L12.3567 15.8925ZM0.440204 8.72762C0.321038 8.95428 0.222706 9.15595 0.14854 9.31761C-0.0489578 9.75177 -0.0489578 10.2493 0.14854 10.6843C0.182706 10.7601 0.226873 10.8501 0.271039 10.9409L5.20015 15.87C5.85181 16.5217 6.66514 16.9917 7.56096 17.2059C7.63263 17.2234 7.70513 17.2392 7.77846 17.255C8.22596 17.3517 8.53012 16.8184 8.20679 16.495L0.440204 8.72762ZM19.7558 18.5775C20.0817 18.9033 20.0817 19.43 19.7558 19.7558C19.5933 19.9183 19.38 20 19.1667 20C18.9533 20 18.74 19.9183 18.5775 19.7558L0.244372 1.42269C-0.0814575 1.09686 -0.0814575 0.570202 0.244372 0.244372C0.570202 -0.0814575 1.09686 -0.0814575 1.42269 0.244372L4.97932 3.801C6.51097 2.93768 8.19762 2.50018 10.0001 2.50018C15.16 2.50018 18.1 6.03181 19.3925 8.13679C20.2075 9.46344 20.2075 11.1118 19.3925 12.4384C18.8658 13.2959 17.9942 14.4992 16.7442 15.5659L19.7558 18.5775ZM6.21264 5.03432L7.70263 6.52431C9.31928 5.45515 11.5243 5.63182 12.9467 7.0543C14.3692 8.47762 14.5459 10.6818 13.4767 12.2984L15.5617 14.3834C16.7017 13.4376 17.4967 12.3417 17.9734 11.5659C18.4575 10.7776 18.4575 9.79761 17.9734 9.00928C16.8625 7.20097 14.3492 4.16683 10.0009 4.16683C8.65178 4.16683 7.38096 4.4585 6.21264 5.03432ZM12.2559 11.0776C12.6984 10.1484 12.5359 9.00095 11.7684 8.23262C11.0001 7.4643 9.85177 7.30263 8.92345 7.74513L12.2567 11.0784L12.2559 11.0776Z" fill="#7C57FD"/>
</svg>